<svg width="1440" height="916" viewBox="0 0 1440 916" fill="none" xmlns="http://www.w3.org/2000/svg">
<mask id="mask0_310_12" style="mask-type:alpha" maskUnits="userSpaceOnUse" x="0" y="0" width="1440" height="916">
<rect width="1440" height="916" fill="#D9D9D9"/>
</mask>
<g mask="url(#mask0_310_12)">
<path opacity="0.18" fill-rule="evenodd" clip-rule="evenodd" d="M-188 1690C-188 1698.83 -180.836 1706 -172 1706L1612 1706C1620.84 1706 1628 1698.84 1628 1690V16C1628 7.16344 1620.84 0 1612 0H-172C-180.836 0 -188 7.16344 -188 16V1690ZM1538.69 3.252H1455.33V100.162H1538.69V3.252ZM1369 3.252H1452.35V100.162H1369V3.252ZM1366.02 3.252H1282.66V100.162H1366.02V3.252ZM1196.33 3.252H1279.69V100.162H1196.33V3.252ZM1193.35 3.252H1109.99V100.162H1193.35V3.252ZM1023.66 3.252H1107.02V100.162H1023.66V3.252ZM1020.68 3.252H937.325V100.162H1020.68V3.252ZM850.99 3.252H934.348V100.162H850.99V3.252ZM848.013 3.252H764.656V100.162H848.013V3.252ZM678.321 3.252H761.679V100.162H678.321V3.252ZM675.344 3.252H591.987V100.162H675.344V3.252ZM505.652 3.252H589.01V100.162H505.652V3.252ZM502.675 3.252H419.318V100.162H502.675V3.252ZM332.984 3.252H416.341V100.162H332.984V3.252ZM330.007 3.252H246.649V100.162H330.007V3.252ZM160.315 3.252H243.672V100.162H160.315V3.252ZM157.338 3.252H73.9803V100.162H157.338V3.252ZM-12.354 3.252H71.0033V100.162H-12.354V3.252ZM-15.3311 3.252H-98.6884V100.162H-15.3311V3.252ZM-185.023 19.252C-185.023 10.4154 -177.859 3.252 -169.023 3.252H-101.665V100.162H-185.023V19.252ZM-169.023 1702.75C-177.859 1702.75 -185.023 1695.58 -185.023 1686.75V1605.84H-101.665V1702.75H-169.023ZM-185.023 1602.59V1505.68H-101.665V1602.59H-185.023ZM-185.023 1502.42V1405.52H-101.665V1502.42H-185.023ZM-185.023 1402.26V1305.35H-101.665V1402.26H-185.023ZM-185.023 1302.1V1205.19H-101.665V1302.1H-185.023ZM-185.023 1201.94V1105.03H-101.665V1201.94H-185.023ZM-185.023 1101.78V1004.87H-101.665V1101.78H-185.023ZM-185.023 1001.62V904.707H-101.665V1001.62H-185.023ZM-185.023 901.455V804.545H-101.665V901.455H-185.023ZM-185.023 801.293V704.383H-101.665V801.293H-185.023ZM-185.023 701.131V604.222H-101.665V701.131H-185.023ZM-185.023 600.97V504.06H-101.665V600.97H-185.023ZM-185.023 500.808V403.898H-101.665V500.808H-185.023ZM-185.023 400.647V303.737H-101.665V400.647H-185.023ZM-185.023 300.485V203.575H-101.665V300.485H-185.023ZM-185.023 200.323V103.414H-101.665V200.323H-185.023ZM-15.3311 103.414H-98.6884V200.323H-15.3311V103.414ZM-15.3311 203.575H-98.6884V300.485H-15.3311V203.575ZM-15.3311 303.737H-98.6884V400.647H-15.3311V303.737ZM-15.3311 403.898H-98.6884V500.808H-15.3311V403.898ZM-15.3311 504.06H-98.6884V600.97H-15.3311V504.06ZM-15.3311 604.222H-98.6884V701.131H-15.3311V604.222ZM-15.3311 704.383H-98.6884V801.293H-15.3311V704.383ZM-15.3311 804.545H-98.6884V901.455H-15.3311V804.545ZM-15.3311 904.707H-98.6884V1001.62H-15.3311V904.707ZM-15.3311 1004.87H-98.6884V1101.78H-15.3311V1004.87ZM-15.3311 1105.03H-98.6884V1201.94H-15.3311V1105.03ZM-15.3311 1205.19H-98.6884V1302.1H-15.3311V1205.19ZM-15.3311 1305.35H-98.6884V1402.26H-15.3311V1305.35ZM-15.3311 1405.52H-98.6884V1502.42H-15.3311V1405.52ZM-15.3311 1505.68H-98.6884V1602.59H-15.3311V1505.68ZM-15.3311 1605.84H-98.6884V1702.75H-15.3311V1605.84ZM-12.354 103.414H71.0033V200.323H-12.354V103.414ZM-12.354 203.575H71.0033V300.485H-12.354V203.575ZM-12.354 303.737H71.0033V400.647H-12.354V303.737ZM-12.354 403.898H71.0033V500.808H-12.354V403.898ZM-12.354 504.06H71.0033V600.97H-12.354V504.06ZM-12.354 604.222H71.0033V701.131H-12.354V604.222ZM-12.354 704.383H71.0033V801.293H-12.354V704.383ZM-12.354 804.545H71.0033V901.455H-12.354V804.545ZM-12.354 904.707H71.0033V1001.62H-12.354V904.707ZM-12.354 1004.87H71.0033V1101.78H-12.354V1004.87ZM-12.354 1105.03H71.0033V1201.94H-12.354V1105.03ZM-12.354 1205.19H71.0033V1302.1H-12.354V1205.19ZM-12.354 1305.35H71.0033V1402.26H-12.354V1305.35ZM-12.354 1405.52H71.0033V1502.42H-12.354V1405.52ZM-12.354 1505.68H71.0033V1602.59H-12.354V1505.68ZM-12.354 1605.84H71.0033V1702.75H-12.354V1605.84ZM157.338 103.414H73.9803V200.323H157.338V103.414ZM157.338 203.575H73.9803V300.485H157.338V203.575ZM157.338 303.737H73.9803V400.647H157.338V303.737ZM157.338 403.898H73.9803V500.808H157.338V403.898ZM157.338 504.06H73.9803V600.97H157.338V504.06ZM157.338 604.222H73.9803V701.131H157.338V604.222ZM157.338 704.383H73.9803V801.293H157.338V704.383ZM157.338 804.545H73.9803V901.455H157.338V804.545ZM157.338 904.707H73.9803V1001.62H157.338V904.707ZM157.338 1004.87H73.9803V1101.78H157.338V1004.87ZM157.338 1105.03H73.9803V1201.94H157.338V1105.03ZM157.338 1205.19H73.9803V1302.1H157.338V1205.19ZM157.338 1305.35H73.9803V1402.26H157.338V1305.35ZM157.338 1405.52H73.9803V1502.42H157.338V1405.52ZM157.338 1505.68H73.9803V1602.59H157.338V1505.68ZM157.338 1605.84H73.9803V1702.75H157.338V1605.84ZM160.315 103.414H243.672V200.323H160.315V103.414ZM160.315 203.575H243.672V300.485H160.315V203.575ZM160.315 303.737H243.672V400.647H160.315V303.737ZM160.315 403.898H243.672V500.808H160.315V403.898ZM160.315 504.06H243.672V600.97H160.315V504.06ZM160.315 604.222H243.672V701.131H160.315V604.222ZM160.315 704.383H243.672V801.293H160.315V704.383ZM160.315 804.545H243.672V901.455H160.315V804.545ZM160.315 904.707H243.672V1001.62H160.315V904.707ZM160.315 1004.87H243.672V1101.78H160.315V1004.87ZM160.315 1105.03H243.672V1201.94H160.315V1105.03ZM160.315 1205.19H243.672V1302.1H160.315V1205.19ZM160.315 1305.35H243.672V1402.26H160.315V1305.35ZM160.315 1405.52H243.672V1502.42H160.315V1405.52ZM160.315 1505.68H243.672V1602.59H160.315V1505.68ZM160.315 1605.84H243.672V1702.75H160.315V1605.84ZM330.007 103.414H246.649V200.323H330.007V103.414ZM330.007 203.575H246.649V300.485H330.007V203.575ZM330.007 303.737H246.649V400.647H330.007V303.737ZM330.007 403.898H246.649V500.808H330.007V403.898ZM330.007 504.06H246.649V600.97H330.007V504.06ZM330.007 604.222H246.649V701.131H330.007V604.222ZM330.007 704.383H246.649V801.293H330.007V704.383ZM330.007 804.545H246.649V901.455H330.007V804.545ZM330.007 904.707H246.649V1001.62H330.007V904.707ZM330.007 1004.87H246.649V1101.78H330.007V1004.87ZM330.007 1105.03H246.649V1201.94H330.007V1105.03ZM330.007 1205.19H246.649V1302.1H330.007V1205.19ZM330.007 1305.35H246.649V1402.26H330.007V1305.35ZM330.007 1405.52H246.649V1502.42H330.007V1405.52ZM330.007 1505.68H246.649V1602.59H330.007V1505.68ZM330.007 1605.84H246.649V1702.75H330.007V1605.84ZM332.984 103.414H416.341V200.323H332.984V103.414ZM332.984 203.575H416.341V300.485H332.984V203.575ZM332.984 303.737H416.341V400.647H332.984V303.737ZM332.984 403.898H416.341V500.808H332.984V403.898ZM332.984 504.06H416.341V600.97H332.984V504.06ZM332.984 604.222H416.341V701.131H332.984V604.222ZM332.984 704.383H416.341V801.293H332.984V704.383ZM332.984 804.545H416.341V901.455H332.984V804.545ZM332.984 904.707H416.341V1001.62H332.984V904.707ZM332.984 1004.87H416.341V1101.78H332.984V1004.87ZM332.984 1105.03H416.341V1201.94H332.984V1105.03ZM332.984 1205.19H416.341V1302.1H332.984V1205.19ZM332.984 1305.35H416.341V1402.26H332.984V1305.35ZM332.984 1405.52H416.341V1502.42H332.984V1405.52ZM332.984 1505.68H416.341V1602.59H332.984V1505.68ZM332.984 1605.84H416.341V1702.75H332.984V1605.84ZM502.675 103.414H419.318V200.323H502.675V103.414ZM502.675 203.575H419.318V300.485H502.675V203.575ZM502.675 303.737H419.318V400.647H502.675V303.737ZM502.675 403.898H419.318V500.808H502.675V403.898ZM502.675 504.06H419.318V600.97H502.675V504.06ZM502.675 604.222H419.318V701.131H502.675V604.222ZM502.675 704.383H419.318V801.293H502.675V704.383ZM502.675 804.545H419.318V901.455H502.675V804.545ZM502.675 904.707H419.318V1001.62H502.675V904.707ZM502.675 1004.87H419.318V1101.78H502.675V1004.87ZM502.675 1105.03H419.318V1201.94H502.675V1105.03ZM502.675 1205.19H419.318V1302.1H502.675V1205.19ZM502.675 1305.35H419.318V1402.26H502.675V1305.35ZM502.675 1405.52H419.318V1502.42H502.675V1405.52ZM502.675 1505.68H419.318V1602.59H502.675V1505.68ZM502.675 1605.84H419.318V1702.75H502.675V1605.84ZM505.652 103.414H589.01V200.323H505.652V103.414ZM505.652 203.575H589.01V300.485H505.652V203.575ZM505.652 303.737H589.01V400.647H505.652V303.737ZM505.652 403.898H589.01V500.808H505.652V403.898ZM505.652 504.06H589.01V600.97H505.652V504.06ZM505.652 604.222H589.01V701.131H505.652V604.222ZM505.652 704.383H589.01V801.293H505.652V704.383ZM505.652 804.545H589.01V901.455H505.652V804.545ZM505.652 904.707H589.01V1001.62H505.652V904.707ZM505.652 1004.87H589.01V1101.78H505.652V1004.87ZM505.652 1105.03H589.01V1201.94H505.652V1105.03ZM505.652 1205.19H589.01V1302.1H505.652V1205.19ZM505.652 1305.35H589.01V1402.26H505.652V1305.35ZM505.652 1405.52H589.01V1502.42H505.652V1405.52ZM505.652 1505.68H589.01V1602.59H505.652V1505.68ZM505.652 1605.84H589.01V1702.75H505.652V1605.84ZM675.344 103.414H591.987V200.323H675.344V103.414ZM675.344 203.575H591.987V300.485H675.344V203.575ZM675.344 303.737H591.987V400.647H675.344V303.737ZM675.344 403.898H591.987V500.808H675.344V403.898ZM675.344 504.06H591.987V600.97H675.344V504.06ZM675.344 604.222H591.987V701.131H675.344V604.222ZM675.344 704.383H591.987V801.293H675.344V704.383ZM675.344 804.545H591.987V901.455H675.344V804.545ZM675.344 904.707H591.987V1001.62H675.344V904.707ZM675.344 1004.87H591.987V1101.78H675.344V1004.87ZM675.344 1105.03H591.987V1201.94H675.344V1105.03ZM675.344 1205.19H591.987V1302.1H675.344V1205.19ZM675.344 1305.35H591.987V1402.26H675.344V1305.35ZM675.344 1405.52H591.987V1502.42H675.344V1405.52ZM675.344 1505.68H591.987V1602.59H675.344V1505.68ZM675.344 1605.84H591.987V1702.75H675.344V1605.84ZM678.321 103.414H761.679V200.323H678.321V103.414ZM678.321 203.575H761.679V300.485H678.321V203.575ZM678.321 303.737H761.679V400.647H678.321V303.737ZM678.321 403.898H761.679V500.808H678.321V403.898ZM678.321 504.06H761.679V600.97H678.321V504.06ZM678.321 604.222H761.679V701.131H678.321V604.222ZM678.321 704.383H761.679V801.293H678.321V704.383ZM678.321 804.545H761.679V901.455H678.321V804.545ZM678.321 904.707H761.679V1001.62H678.321V904.707ZM678.321 1004.87H761.679V1101.78H678.321V1004.87ZM678.321 1105.03H761.679V1201.94H678.321V1105.03ZM678.321 1205.19H761.679V1302.1H678.321V1205.19ZM678.321 1305.35H761.679V1402.26H678.321V1305.35ZM678.321 1405.52H761.679V1502.42H678.321V1405.52ZM678.321 1505.68H761.679V1602.59H678.321V1505.68ZM678.321 1605.84H761.679V1702.75H678.321V1605.84ZM848.013 103.414H764.656V200.323H848.013V103.414ZM848.013 203.575H764.656V300.485H848.013V203.575ZM848.013 303.737H764.656V400.647H848.013V303.737ZM848.013 403.898H764.656V500.808H848.013V403.898ZM848.013 504.06H764.656V600.97H848.013V504.06ZM848.013 604.222H764.656V701.131H848.013V604.222ZM848.013 704.383H764.656V801.293H848.013V704.383ZM848.013 804.545H764.656V901.455H848.013V804.545ZM848.013 904.707H764.656V1001.62H848.013V904.707ZM848.013 1004.87H764.656V1101.78H848.013V1004.87ZM848.013 1105.03H764.656V1201.94H848.013V1105.03ZM848.013 1205.19H764.656V1302.1H848.013V1205.19ZM848.013 1305.35H764.656V1402.26H848.013V1305.35ZM848.013 1405.52H764.656V1502.42H848.013V1405.52ZM848.013 1505.68H764.656V1602.59H848.013V1505.68ZM848.013 1605.84H764.656V1702.75H848.013V1605.84ZM850.99 103.414H934.348V200.323H850.99V103.414ZM850.99 203.575H934.348V300.485H850.99V203.575ZM850.99 303.737H934.348V400.647H850.99V303.737ZM850.99 403.898H934.348V500.808H850.99V403.898ZM850.99 504.06H934.348V600.97H850.99V504.06ZM850.99 604.222H934.348V701.131H850.99V604.222ZM850.99 704.383H934.348V801.293H850.99V704.383ZM850.99 804.545H934.348V901.455H850.99V804.545ZM850.99 904.707H934.348V1001.62H850.99V904.707ZM850.99 1004.87H934.348V1101.78H850.99V1004.87ZM850.99 1105.03H934.348V1201.94H850.99V1105.03ZM850.99 1205.19H934.348V1302.1H850.99V1205.19ZM850.99 1305.35H934.348V1402.26H850.99V1305.35ZM850.99 1405.52H934.348V1502.42H850.99V1405.52ZM850.99 1505.68H934.348V1602.59H850.99V1505.68ZM850.99 1605.84H934.348V1702.75H850.99V1605.84ZM1020.68 103.414H937.325V200.323H1020.68V103.414ZM1020.68 203.575H937.325V300.485H1020.68V203.575ZM1020.68 303.737H937.325V400.647H1020.68V303.737ZM1020.68 403.898H937.325V500.808H1020.68V403.898ZM1020.68 504.06H937.325V600.97H1020.68V504.06ZM1020.68 604.222H937.325V701.131H1020.68V604.222ZM1020.68 704.383H937.325V801.293H1020.68V704.383ZM1020.68 804.545H937.325V901.455H1020.68V804.545ZM1020.68 904.707H937.325V1001.62H1020.68V904.707ZM1020.68 1004.87H937.325V1101.78H1020.68V1004.87ZM1020.68 1105.03H937.325V1201.94H1020.68V1105.03ZM1020.68 1205.19H937.325V1302.1H1020.68V1205.19ZM1020.68 1305.35H937.325V1402.26H1020.68V1305.35ZM1020.68 1405.52H937.325V1502.42H1020.68V1405.52ZM1020.68 1505.68H937.325V1602.59H1020.68V1505.68ZM1020.68 1605.84H937.325V1702.75H1020.68V1605.84ZM1023.66 103.414H1107.02V200.323H1023.66V103.414ZM1023.66 203.575H1107.02V300.485H1023.66V203.575ZM1023.66 303.737H1107.02V400.647H1023.66V303.737ZM1023.66 403.898H1107.02V500.808H1023.66V403.898ZM1023.66 504.06H1107.02V600.97H1023.66V504.06ZM1023.66 604.222H1107.02V701.131H1023.66V604.222ZM1023.66 704.383H1107.02V801.293H1023.66V704.383ZM1023.66 804.545H1107.02V901.455H1023.66V804.545ZM1023.66 904.707H1107.02V1001.62H1023.66V904.707ZM1023.66 1004.87H1107.02V1101.78H1023.66V1004.87ZM1023.66 1105.03H1107.02V1201.94H1023.66V1105.03ZM1023.66 1205.19H1107.02V1302.1H1023.66V1205.19ZM1023.66 1305.35H1107.02V1402.26H1023.66V1305.35ZM1023.66 1405.52H1107.02V1502.42H1023.66V1405.52ZM1023.66 1505.68H1107.02V1602.59H1023.66V1505.68ZM1023.66 1605.84H1107.02V1702.75H1023.66V1605.84ZM1193.35 103.414H1109.99V200.323H1193.35V103.414ZM1193.35 203.575H1109.99V300.485H1193.35V203.575ZM1193.35 303.737H1109.99V400.647H1193.35V303.737ZM1193.35 403.898H1109.99V500.808H1193.35V403.898ZM1193.35 504.06H1109.99V600.97H1193.35V504.06ZM1193.35 604.222H1109.99V701.131H1193.35V604.222ZM1193.35 704.383H1109.99V801.293H1193.35V704.383ZM1193.35 804.545H1109.99V901.455H1193.35V804.545ZM1193.35 904.707H1109.99V1001.62H1193.35V904.707ZM1193.35 1004.87H1109.99V1101.78H1193.35V1004.87ZM1193.35 1105.03H1109.99V1201.94H1193.35V1105.03ZM1193.35 1205.19H1109.99V1302.1H1193.35V1205.19ZM1193.35 1305.35H1109.99V1402.26H1193.35V1305.35ZM1193.35 1405.52H1109.99V1502.42H1193.35V1405.52ZM1193.35 1505.68H1109.99V1602.59H1193.35V1505.68ZM1193.35 1605.84H1109.99V1702.75H1193.35V1605.84ZM1196.33 103.414H1279.69V200.323H1196.33V103.414ZM1196.33 203.575H1279.69V300.485H1196.33V203.575ZM1196.33 303.737H1279.69V400.647H1196.33V303.737ZM1196.33 403.898H1279.69V500.808H1196.33V403.898ZM1196.33 504.06H1279.69V600.97H1196.33V504.06ZM1196.33 604.222H1279.69V701.131H1196.33V604.222ZM1196.33 704.383H1279.69V801.293H1196.33V704.383ZM1196.33 804.545H1279.69V901.455H1196.33V804.545ZM1196.33 904.707H1279.69V1001.62H1196.33V904.707ZM1196.33 1004.87H1279.69V1101.78H1196.33V1004.87ZM1196.33 1105.03H1279.69V1201.94H1196.33V1105.03ZM1196.33 1205.19H1279.69V1302.1H1196.33V1205.19ZM1196.33 1305.35H1279.69V1402.26H1196.33V1305.35ZM1196.33 1405.52H1279.69V1502.42H1196.33V1405.52ZM1196.33 1505.68H1279.69V1602.59H1196.33V1505.68ZM1196.33 1605.84H1279.69V1702.75H1196.33V1605.84ZM1366.02 103.414H1282.66V200.323H1366.02V103.414ZM1366.02 203.575H1282.66V300.485H1366.02V203.575ZM1366.02 303.737H1282.66V400.647H1366.02V303.737ZM1366.02 403.898H1282.66V500.808H1366.02V403.898ZM1366.02 504.06H1282.66V600.97H1366.02V504.06ZM1366.02 604.222H1282.66V701.131H1366.02V604.222ZM1366.02 704.383H1282.66V801.293H1366.02V704.383ZM1366.02 804.545H1282.66V901.455H1366.02V804.545ZM1366.02 904.707H1282.66V1001.62H1366.02V904.707ZM1366.02 1004.87H1282.66V1101.78H1366.02V1004.87ZM1366.02 1105.03H1282.66V1201.94H1366.02V1105.03ZM1366.02 1205.19H1282.66V1302.1H1366.02V1205.19ZM1366.02 1305.35H1282.66V1402.26H1366.02V1305.35ZM1366.02 1405.52H1282.66V1502.42H1366.02V1405.52ZM1366.02 1505.68H1282.66V1602.59H1366.02V1505.68ZM1366.02 1605.84H1282.66V1702.75H1366.02V1605.84ZM1369 103.414H1452.35V200.323H1369V103.414ZM1369 203.575H1452.35V300.485H1369V203.575ZM1369 303.737H1452.35V400.647H1369V303.737ZM1369 403.898H1452.35V500.808H1369V403.898ZM1369 504.06H1452.35V600.97H1369V504.06ZM1369 604.222H1452.35V701.131H1369V604.222ZM1369 704.383H1452.35V801.293H1369V704.383ZM1369 804.545H1452.35V901.455H1369V804.545ZM1369 904.707H1452.35V1001.62H1369V904.707ZM1369 1004.87H1452.35V1101.78H1369V1004.87ZM1369 1105.03H1452.35V1201.94H1369V1105.03ZM1369 1205.19H1452.35V1302.1H1369V1205.19ZM1369 1305.35H1452.35V1402.26H1369V1305.35ZM1369 1405.52H1452.35V1502.42H1369V1405.52ZM1369 1505.68H1452.35V1602.59H1369V1505.68ZM1369 1605.84H1452.35V1702.75H1369V1605.84ZM1538.69 103.414H1455.33V200.323H1538.69V103.414ZM1538.69 203.575H1455.33V300.485H1538.69V203.575ZM1538.69 303.737H1455.33V400.647H1538.69V303.737ZM1538.69 403.898H1455.33V500.808H1538.69V403.898ZM1538.69 504.06H1455.33V600.97H1538.69V504.06ZM1538.69 604.222H1455.33V701.131H1538.69V604.222ZM1538.69 704.383H1455.33V801.293H1538.69V704.383ZM1538.69 804.545H1455.33V901.455H1538.69V804.545ZM1538.69 904.707H1455.33V1001.62H1538.69V904.707ZM1538.69 1004.87H1455.33V1101.78H1538.69V1004.87ZM1538.69 1105.03H1455.33V1201.94H1538.69V1105.03ZM1538.69 1205.19H1455.33V1302.1H1538.69V1205.19ZM1538.69 1305.35H1455.33V1402.26H1538.69V1305.35ZM1538.69 1405.52H1455.33V1502.42H1538.69V1405.52ZM1538.69 1505.68H1455.33V1602.59H1538.69V1505.68ZM1538.69 1605.84H1455.33V1702.75H1538.69V1605.84ZM1541.67 3.252H1609.02C1617.86 3.252 1625.02 10.4154 1625.02 19.252V100.162H1541.67V3.252ZM1541.67 103.414H1625.02V200.323H1541.67V103.414ZM1541.67 203.575H1625.02V300.485H1541.67V203.575ZM1541.67 303.737H1625.02V400.647H1541.67V303.737ZM1541.67 403.898H1625.02V500.808H1541.67V403.898ZM1541.67 504.06H1625.02V600.97H1541.67V504.06ZM1541.67 604.222H1625.02V701.131H1541.67V604.222ZM1541.67 704.383H1625.02V801.293H1541.67V704.383ZM1541.67 804.545H1625.02V901.455H1541.67V804.545ZM1541.67 904.707H1625.02V1001.62H1541.67V904.707ZM1541.67 1004.87H1625.02V1101.78H1541.67V1004.87ZM1541.67 1105.03H1625.02V1201.94H1541.67V1105.03ZM1541.67 1205.19H1625.02V1302.1H1541.67V1205.19ZM1541.67 1305.35H1625.02V1402.26H1541.67V1305.35ZM1541.67 1405.52H1625.02V1502.42H1541.67V1405.52ZM1541.67 1505.68H1625.02V1602.59H1541.67V1505.68ZM1541.67 1605.84H1625.02V1686.75C1625.02 1695.58 1617.86 1702.75 1609.02 1702.75H1541.67V1605.84Z" fill="url(#paint0_radial_310_12)"/>
<g filter="url(#filter0_f_310_12)">
<ellipse cx="720.5" cy="239.5" rx="266.5" ry="65.5" fill="#19A069"/>
</g>
</g>
<defs>
<filter id="filter0_f_310_12" x="73.1" y="-206.9" width="1294.8" height="892.8" filterUnits="userSpaceOnUse" color-interpolation-filters="sRGB">
<feFlood flood-opacity="0" result="BackgroundImageFix"/>
<feBlend mode="normal" in="SourceGraphic" in2="BackgroundImageFix" result="shape"/>
<feGaussianBlur stdDeviation="190.45" result="effect1_foregroundBlur_310_12"/>
</filter>
<radialGradient id="paint0_radial_310_12" cx="0" cy="0" r="1" gradientUnits="userSpaceOnUse" gradientTransform="translate(720 -1.03604e-05) rotate(90) scale(531 720.04)">
<stop offset="0.0108269" stop-color="#19A069" stop-opacity="0.04"/>
<stop offset="1" stop-color="#00130B"/>
</radialGradient>
</defs>
</svg>
