<svg width="1240" height="583" viewBox="0 0 1240 583" fill="none" xmlns="http://www.w3.org/2000/svg">
<path d="M975.546 1.99082C904.613 -4.55072 833.749 15.1984 776.385 57.4944C719.022 99.7904 679.145 161.693 664.314 231.471C662.792 239.789 658.432 247.319 651.979 252.773C645.525 258.228 637.38 261.267 628.937 261.371H610.875C602.45 261.261 594.325 258.217 587.897 252.761C581.469 247.305 577.137 239.777 575.647 231.471C561.011 161.697 521.34 99.7184 464.144 57.2699C406.947 14.8215 336.196 -5.15021 265.284 1.13493C194.372 7.42006 128.223 39.5272 79.3588 91.3762C30.4949 143.225 2.30833 211.218 0.135641 282.482C-2.03705 353.745 21.9549 423.333 67.5692 478.071C113.183 532.809 177.254 568.898 247.651 579.505C318.047 590.111 389.884 574.498 449.56 535.624C509.236 496.749 552.609 437.312 571.467 368.562C573.447 360.815 577.934 353.942 584.226 349.019C590.519 344.096 598.263 341.4 606.248 341.352H633.714C641.698 341.4 649.442 344.096 655.735 349.019C662.028 353.942 666.514 360.815 668.494 368.562C682.531 419.835 710.307 466.284 748.815 502.879C787.323 539.474 835.093 564.819 886.954 576.17C938.814 587.521 992.787 584.446 1043.03 567.276C1093.27 550.106 1137.86 519.496 1171.97 478.763C1206.09 438.029 1228.42 388.724 1236.56 336.188C1244.7 283.651 1238.33 229.885 1218.14 180.714C1197.96 131.543 1164.72 88.8403 1122.04 57.2316C1079.36 25.6229 1028.85 6.31246 975.994 1.39224L975.546 1.99082ZM291.135 472.164C255.441 472.164 220.55 461.564 190.871 441.704C161.193 421.843 138.062 393.616 124.403 360.589C110.743 327.562 107.17 291.22 114.133 256.159C121.096 221.098 138.285 188.892 163.524 163.614C188.763 138.337 220.919 121.124 255.927 114.15C290.935 107.175 327.221 110.755 360.198 124.435C393.174 138.115 421.36 161.282 441.19 191.005C461.02 220.728 471.604 255.672 471.604 291.42C471.565 339.344 452.539 385.295 418.702 419.182C384.866 453.07 338.986 472.124 291.135 472.164ZM949.125 472.164C913.431 472.164 878.539 461.564 848.861 441.704C819.183 421.843 796.052 393.616 782.393 360.589C768.734 327.562 765.16 291.22 772.123 256.159C779.087 221.098 796.274 188.892 821.513 163.614C846.753 138.337 878.909 121.124 913.917 114.15C948.924 107.175 985.211 110.755 1018.19 124.435C1051.16 138.115 1079.35 161.282 1099.18 191.005C1119.01 220.728 1129.59 255.672 1129.59 291.42C1129.56 315.246 1124.82 338.83 1115.66 360.819C1106.51 382.808 1093.1 402.77 1076.23 419.562C1059.35 436.353 1039.33 449.643 1017.31 458.67C995.298 467.697 971.72 472.282 947.931 472.164H949.125Z" fill="url(#paint0_radial_310_11)"/>
<defs>
<radialGradient id="paint0_radial_310_11" cx="0" cy="0" r="1" gradientUnits="userSpaceOnUse" gradientTransform="translate(620) rotate(90) scale(582.889 1240)">
<stop stop-color="#37E09B"/>
<stop offset="0.558188" stop-color="#00130B" stop-opacity="0"/>
<stop offset="0.996806" stop-color="#00130B"/>
</radialGradient>
</defs>
</svg>
