<svg width="90" height="59" viewBox="0 0 90 59" fill="none" xmlns="http://www.w3.org/2000/svg">
<rect x="7" y="21" width="83" height="38" rx="19" fill="#19A069"/>
<path d="M32.4283 33.9091H34.6719L38.0916 39.8601H38.2322L41.652 33.9091H43.8956L39.1463 41.8608V47H37.1776V41.8608L32.4283 33.9091ZM48.1255 47.1982C47.2051 47.1982 46.4018 46.9872 45.7157 46.5653C45.0297 46.1435 44.497 45.5533 44.1177 44.7947C43.7385 44.0362 43.5488 43.1499 43.5488 42.1357C43.5488 41.1172 43.7385 40.2266 44.1177 39.4638C44.497 38.701 45.0297 38.1087 45.7157 37.6868C46.4018 37.2649 47.2051 37.054 48.1255 37.054C49.046 37.054 49.8493 37.2649 50.5353 37.6868C51.2214 38.1087 51.7541 38.701 52.1333 39.4638C52.5126 40.2266 52.7022 41.1172 52.7022 42.1357C52.7022 43.1499 52.5126 44.0362 52.1333 44.7947C51.7541 45.5533 51.2214 46.1435 50.5353 46.5653C49.8493 46.9872 49.046 47.1982 48.1255 47.1982ZM48.1319 45.5938C48.7285 45.5938 49.2228 45.4361 49.6149 45.1207C50.0069 44.8054 50.2967 44.3857 50.4842 43.8615C50.676 43.3374 50.7718 42.7599 50.7718 42.1293C50.7718 41.5028 50.676 40.9276 50.4842 40.4034C50.2967 39.875 50.0069 39.451 49.6149 39.1314C49.2228 38.8118 48.7285 38.652 48.1319 38.652C47.5311 38.652 47.0325 38.8118 46.6362 39.1314C46.2441 39.451 45.9522 39.875 45.7605 40.4034C45.573 40.9276 45.4792 41.5028 45.4792 42.1293C45.4792 42.7599 45.573 43.3374 45.7605 43.8615C45.9522 44.3857 46.2441 44.8054 46.6362 45.1207C47.0325 45.4361 47.5311 45.5938 48.1319 45.5938ZM61.055 42.9283V37.1818H62.9727V47H61.0934V45.2997H60.9911C60.7653 45.8239 60.4031 46.2607 59.9045 46.6101C59.4102 46.9553 58.7944 47.1278 58.0572 47.1278C57.4265 47.1278 56.8683 46.9893 56.3825 46.7124C55.9009 46.4311 55.5217 46.0156 55.2447 45.4659C54.9719 44.9162 54.8356 44.2365 54.8356 43.4268V37.1818H56.7468V43.1967C56.7468 43.8658 56.9322 44.3984 57.3029 44.7947C57.6737 45.1911 58.1552 45.3892 58.7475 45.3892C59.1055 45.3892 59.4613 45.2997 59.815 45.1207C60.1729 44.9418 60.4691 44.6712 60.7035 44.3089C60.9421 43.9467 61.0593 43.4865 61.055 42.9283Z" fill="white"/>
<path d="M3.9806 2.69653C2.5078 1.69884 0.563074 2.97625 0.893759 4.72415L3.69726 19.5426C4.02046 21.251 6.2192 21.7618 7.2624 20.3709L9.96286 16.7702C10.232 16.4113 10.6141 16.1534 11.0475 16.0378L15.8722 14.7512C17.5288 14.3094 17.898 12.1245 16.4786 11.1629L3.9806 2.69653Z" fill="#19A069"/>
</svg>
