<svg width="87" height="44" viewBox="0 0 87 44" fill="none" xmlns="http://www.w3.org/2000/svg">
<path d="M65.2211 43.629C60.4664 43.622 55.8437 42.0648 52.0537 39.1937C48.2638 36.3226 45.5134 32.2941 44.2195 27.7189H42.8154C41.7401 31.5452 39.6399 35.0049 36.7416 37.7246C33.8433 40.4442 30.2571 42.3204 26.3702 43.1504C22.4833 43.9805 18.4436 43.7328 14.6872 42.4343C10.9308 41.1357 7.60055 38.8356 5.05613 35.7823C2.51172 32.729 0.849822 29.0385 0.249925 25.1096C-0.349972 21.1806 0.134941 17.1624 1.65228 13.489C3.16961 9.81549 5.66171 6.62632 8.85942 4.26596C12.0571 1.9056 15.8389 0.463753 19.7964 0.0960701C20.5354 0.0295625 21.1857 0 21.8212 0C26.7962 0.0155807 31.6175 1.72485 35.4913 4.84644C39.365 7.96803 42.0603 12.3158 43.1332 17.1737H43.8721C44.9428 12.3133 47.6385 7.9631 51.5143 4.84094C55.3901 1.71877 60.2146 0.011213 65.1915 0C65.827 0 66.5069 3.61179e-06 67.2015 0.0960701C72.3606 0.591142 77.1767 2.90084 80.7925 6.61404C84.4082 10.3272 86.5891 15.203 86.9469 20.3734C87.1563 23.3553 86.745 26.3483 85.7389 29.1631C84.7328 31.9779 83.1537 34.5534 81.1016 36.7269C79.0623 38.8959 76.6024 40.6265 73.8721 41.8132C71.1417 42.9999 68.1981 43.6178 65.2211 43.629Z" fill="#99E0BE"/>
<path d="M21.1784 36.4462C28.8919 36.4462 35.1449 30.1931 35.1449 22.4796C35.1449 14.7661 28.8919 8.51299 21.1784 8.51299C13.4649 8.51299 7.21179 14.7661 7.21179 22.4796C7.21179 30.1931 13.4649 36.4462 21.1784 36.4462Z" fill="white"/>
<path d="M64.2604 36.4462C71.974 36.4462 78.227 30.1931 78.227 22.4796C78.227 14.7661 71.974 8.51299 64.2604 8.51299C56.5469 8.51299 50.2938 14.7661 50.2938 22.4796C50.2938 30.1931 56.5469 36.4462 64.2604 36.4462Z" fill="white"/>
<path d="M25.0062 21.8145C28.1814 21.8145 30.7554 19.2405 30.7554 16.0653C30.7554 12.8901 28.1814 10.316 25.0062 10.316C21.831 10.316 19.257 12.8901 19.257 16.0653C19.257 19.2405 21.831 21.8145 25.0062 21.8145Z" fill="#19A069"/>
<path d="M68.4059 21.8145C71.5811 21.8145 74.1551 19.2405 74.1551 16.0653C74.1551 12.8901 71.5811 10.316 68.4059 10.316C65.2307 10.316 62.6567 12.8901 62.6567 16.0653C62.6567 19.2405 65.2307 21.8145 68.4059 21.8145Z" fill="#19A069"/>
<path d="M67.002 2.71201C62.3122 2.27859 57.6267 3.58278 53.8353 6.37692C50.0439 9.17106 47.4109 13.2604 46.4364 17.8683C46.332 18.4096 46.0427 18.898 45.6182 19.2498C45.1936 19.6016 44.66 19.795 44.1086 19.7971H42.9115C42.3609 19.7923 41.8288 19.5977 41.4047 19.2464C40.9807 18.8951 40.6908 18.4084 40.5837 17.8683C39.619 13.2658 37 9.17699 33.2226 6.3762C29.4452 3.57541 24.7719 2.25717 20.0877 2.67114C15.4035 3.08512 11.0338 5.20256 7.80617 8.62244C4.57856 12.0423 2.71718 16.5272 2.57463 21.2275C2.43208 25.9277 4.01826 30.5171 7.03269 34.1263C10.0471 37.7355 14.2805 40.1138 18.931 40.8109C23.5815 41.5079 28.3261 40.4754 32.2663 37.9086C36.2064 35.3419 39.0685 31.4193 40.3103 26.8838C40.4446 26.3751 40.7423 25.9247 41.1575 25.6016C41.5727 25.2785 42.0825 25.1007 42.6086 25.0954H44.3895C44.9155 25.1007 45.4253 25.2785 45.8405 25.6016C46.2557 25.9247 46.5533 26.3751 46.6877 26.8838C47.6077 30.2701 49.4377 33.3397 51.9789 35.7597C54.52 38.1796 57.6754 39.8574 61.1026 40.611C64.5298 41.3646 68.0979 41.1652 71.4198 40.0345C74.7417 38.9037 77.6906 36.8848 79.9463 34.1968C82.202 31.5088 83.6785 28.2544 84.2156 24.7866C84.7527 21.3189 84.3299 17.7703 82.993 14.5259C81.6561 11.2815 79.4561 8.46517 76.6319 6.38252C73.8077 4.29986 70.4671 3.03048 66.9725 2.71201H67.002ZM21.8213 33.7489C19.4682 33.7489 17.1679 33.0511 15.2114 31.7437C13.2548 30.4364 11.7299 28.5783 10.8294 26.4043C9.92891 24.2303 9.69333 21.8382 10.1524 19.5303C10.6115 17.2224 11.7446 15.1025 13.4084 13.4386C15.0723 11.7747 17.1923 10.6415 19.5001 10.1825C21.808 9.7234 24.2002 9.95907 26.3742 10.8596C28.5482 11.7601 30.4063 13.2849 31.7136 15.2414C33.0209 17.198 33.7187 19.4982 33.7187 21.8513C33.705 24.9991 32.446 28.0136 30.2167 30.2359C27.9874 32.4583 24.9691 33.708 21.8213 33.7119V33.7489ZM65.2137 33.7489C62.8606 33.7489 60.5603 33.0511 58.6038 31.7437C56.6473 30.4364 55.1224 28.5783 54.2219 26.4043C53.3214 24.2303 53.0858 21.8382 53.5448 19.5303C54.0039 17.2224 55.1371 15.1025 56.8009 13.4386C58.4648 11.7747 60.5848 10.6415 62.8926 10.1825C65.2005 9.7234 67.5927 9.95907 69.7667 10.8596C71.9406 11.7601 73.7988 13.2849 75.1061 15.2414C76.4134 17.198 77.1112 19.4982 77.1112 21.8513C77.0975 24.9991 75.8384 28.0136 73.6091 30.2359C71.3798 32.4583 68.3615 33.708 65.2137 33.7119V33.7489Z" fill="#19A069"/>
</svg>
