<svg version="1.2" xmlns="http://www.w3.org/2000/svg" viewBox="0 0 33 32" width="33" height="32">
	<title>facebookfooter-svg</title>
	<style>
		.s0 { fill: #199f68 } 
	</style>
	<g id="SVGRepo_bgCarrier">
	</g>
	<g id="SVGRepo_tracerCarrier">
	</g>
	<g id="SVGRepo_iconCarrier">
		<path fill-rule="evenodd" class="s0" d="m7.2 5.6h18.4c0.7 0 1.2 0.6 1.2 1.2v18.4c0 0.6-0.5 1.2-1.2 1.2h-18.4c-0.6 0-1.2-0.6-1.2-1.2v-18.4c0-0.6 0.6-1.2 1.2-1.2zm13.6 11.7h2.9l0.1-2.8h-3v-2c0-0.8 0.1-1.2 1.1-1.2h1.8v-2.6c0 0-0.7-0.1-1.9-0.1-2.7 0-3.9 1.7-3.9 3.6v2.3h-2.1v2.8h2.1v7.6h2.9z"/>
	</g>
</svg>