<svg width="30" height="30" viewBox="0 0 30 30" fill="none" xmlns="http://www.w3.org/2000/svg">
<path d="M15.0015 10.5C12.5154 10.5 10.5015 12.5147 10.5015 15C10.5015 17.486 12.5161 19.5 15.0015 19.5C17.4874 19.5 19.5015 17.4853 19.5015 15C19.5015 12.514 17.4868 10.5 15.0015 10.5ZM15.0015 7.5C19.1421 7.5 22.5015 10.8556 22.5015 15C22.5015 19.1408 19.1458 22.5 15.0015 22.5C10.8608 22.5 7.50146 19.1444 7.50146 15C7.50146 10.8593 10.8571 7.5 15.0015 7.5ZM24.7515 7.12372C24.7515 8.15889 23.9103 8.99875 22.8765 8.99875C21.8413 8.99875 21.0015 8.1576 21.0015 7.12372C21.0015 6.08985 21.8425 5.25 22.8765 5.25C23.9089 5.24869 24.7515 6.08985 24.7515 7.12372ZM15.0015 3C11.2897 3 10.6848 3.00982 8.9584 3.0867C7.78222 3.14191 6.99379 3.3001 6.26124 3.5845C5.61024 3.83698 5.14063 4.13847 4.64028 4.63882C4.138 5.1411 3.83705 5.60945 3.58559 6.26075C3.30053 6.99498 3.14239 7.78217 3.08817 8.95673C3.01054 10.6128 3.00146 11.1916 3.00146 15C3.00146 18.7118 3.01129 19.3167 3.08815 21.0429C3.1434 22.2186 3.30179 23.0082 3.5855 23.739C3.83864 24.3909 4.14075 24.8616 4.63869 25.3596C5.14294 25.8632 5.61268 26.1651 6.2578 26.4141C6.99928 26.7008 7.78721 26.8591 8.95817 26.9133C10.6143 26.9909 11.193 27 15.0015 27C18.7132 27 19.3182 26.9901 21.0444 26.9133C22.2175 26.8582 23.0077 26.6994 23.7405 26.4159C24.3906 26.1634 24.8628 25.8603 25.3611 25.3628C25.8654 24.8577 26.1667 24.3891 26.416 23.7425C26.7019 23.0037 26.8606 22.2147 26.9148 21.0434C26.9923 19.3872 27.0015 18.8083 27.0015 15C27.0015 11.2883 26.9916 10.6833 26.9148 8.95706C26.8596 7.78359 26.7007 6.99224 26.4169 6.25977C26.1651 5.61057 25.8625 5.13952 25.3626 4.63882C24.8595 4.13572 24.3924 3.8354 23.7406 3.58413C23.007 3.29931 22.2186 3.14094 21.0447 3.08671C19.3887 3.00907 18.8098 3 15.0015 3ZM15.0015 0C19.0764 0 19.5852 0.0149999 21.1852 0.0899999C22.7814 0.163755 23.8702 0.41625 24.8265 0.7875C25.8151 1.16876 26.6502 1.68375 27.4839 2.51749C28.3164 3.35125 28.8315 4.18875 29.214 5.175C29.5839 6.13 29.8365 7.22 29.9115 8.81625C29.9827 10.4163 30.0015 10.925 30.0015 15C30.0015 19.0751 29.9865 19.5837 29.9115 21.1838C29.8377 22.78 29.5839 23.8687 29.214 24.825C28.8327 25.8138 28.3164 26.6487 27.4839 27.4825C26.6502 28.315 25.8114 28.83 24.8265 29.2125C23.8702 29.5826 22.7814 29.835 21.1852 29.91C19.5852 29.9813 19.0764 30 15.0015 30C10.9265 30 10.4177 29.985 8.81771 29.91C7.22146 29.8362 6.13396 29.5826 5.17647 29.2125C4.18896 28.8312 3.35271 28.315 2.51896 27.4825C1.68522 26.6487 1.17146 25.81 0.788965 24.825C0.417715 23.8687 0.166465 22.78 0.0914651 21.1838C0.0202151 19.5837 0.00146484 19.0751 0.00146484 15C0.00146484 10.925 0.0164651 10.4163 0.0914651 8.81625C0.165205 7.21875 0.417715 6.13125 0.788965 5.175C1.1702 4.1875 1.68522 3.35125 2.51896 2.51749C3.35271 1.68375 4.19022 1.17 5.17647 0.7875C6.13272 0.41625 7.22021 0.165 8.81771 0.0899999C10.4177 0.0187499 10.9265 0 15.0015 0Z" fill="#19A069"/>
</svg>
