<svg width="36" height="36" viewBox="0 0 36 36" fill="none" xmlns="http://www.w3.org/2000/svg">
<path d="M10.4107 7.49989C10.4102 8.72136 9.66912 9.82053 8.53701 10.2791C7.4049 10.7377 6.1078 10.4641 5.25735 9.58732C4.40689 8.71056 4.17292 7.40572 4.66575 6.2881C5.15859 5.17048 6.27981 4.46325 7.50072 4.49989C9.12232 4.54857 10.4115 5.87755 10.4107 7.49989ZM10.5007 12.7199H4.50072V31.4999H10.5007V12.7199ZM19.9808 12.7199H14.0107V31.4999H19.9208V21.6448C19.9208 16.1548 27.0758 15.6448 27.0758 21.6448V31.4999H33.0007V19.6048C33.0007 10.3499 22.4108 10.6949 19.9208 15.2398L19.9808 12.7199Z" fill="#19A069"/>
</svg>
