<svg width="304" height="56" viewBox="0 0 304 56" fill="none" xmlns="http://www.w3.org/2000/svg">
<path d="M82.2702 55.08C76.2722 55.065 70.4427 53.0945 65.6658 49.4671C60.889 45.8398 57.4253 40.7536 55.8002 34.98H54.0302C52.6714 39.8072 50.02 44.1716 46.362 47.602C42.704 51.0324 38.1785 53.3985 33.2741 54.4448C28.3697 55.4911 23.2726 55.178 18.5331 53.5391C13.7937 51.9003 9.59189 48.998 6.38138 45.1456C3.17087 41.2932 1.0736 36.6371 0.315989 31.6798C-0.44162 26.7226 0.169212 21.6525 2.08254 17.0171C3.99586 12.3816 7.13899 8.35681 11.1726 5.37718C15.2062 2.39755 19.9771 0.57629 24.9702 0.110001C25.8702 0.0300006 26.7302 0 27.5302 0C33.8078 0.0185301 39.8918 2.17499 44.7797 6.11406C49.6676 10.0531 53.0679 15.5398 54.4202 21.67H55.4202C56.7786 15.5529 60.176 10.0791 65.0548 6.14699C69.9336 2.21485 76.0041 0.0578825 82.2702 0.0299988C83.0702 0.0299988 83.9302 0.0299994 84.8102 0.139999C91.3197 0.766097 97.3959 3.68157 101.957 8.36755C106.519 13.0535 109.27 19.206 109.72 25.73C109.989 29.494 109.471 33.2727 108.201 36.826C106.93 40.3793 104.934 43.6295 102.34 46.37C99.7659 49.1141 96.6573 51.3023 93.2058 52.8002C89.7543 54.2981 86.0328 55.074 82.2702 55.08Z" fill="#99E0BE"/>
<path d="M26.7203 46.02C36.4571 46.02 44.3503 38.1268 44.3503 28.39C44.3503 18.6532 36.4571 10.76 26.7203 10.76C16.9836 10.76 9.09033 18.6532 9.09033 28.39C9.09033 38.1268 16.9836 46.02 26.7203 46.02Z" fill="white"/>
<path d="M81.0905 46.02C90.8272 46.02 98.7205 38.1268 98.7205 28.39C98.7205 18.6532 90.8272 10.76 81.0905 10.76C71.3537 10.76 63.4604 18.6532 63.4604 28.39C63.4604 38.1268 71.3537 46.02 81.0905 46.02Z" fill="white"/>
<path d="M31.5503 27.55C35.5544 27.55 38.8003 24.3041 38.8003 20.3C38.8003 16.296 35.5544 13.05 31.5503 13.05C27.5462 13.05 24.3003 16.296 24.3003 20.3C24.3003 24.3041 27.5462 27.55 31.5503 27.55Z" fill="#19A069"/>
<path d="M86.3203 27.55C90.3244 27.55 93.5703 24.3041 93.5703 20.3C93.5703 16.296 90.3244 13.05 86.3203 13.05C82.3162 13.05 79.0703 16.296 79.0703 20.3C79.0703 24.3041 82.3162 27.55 86.3203 27.55Z" fill="#19A069"/>
<path d="M84.5401 3.43998C78.6224 2.89061 72.7092 4.53624 67.9261 8.06368C63.1429 11.5911 59.8237 16.7541 58.6001 22.57C58.47 23.255 58.1053 23.8732 57.5688 24.3185C57.0323 24.7638 56.3574 25.0083 55.6601 25.01H54.1601C53.4629 25.0083 52.788 24.7638 52.2515 24.3185C51.715 23.8732 51.3503 23.255 51.2201 22.57C50.0009 16.7709 46.698 11.6201 41.9365 8.09246C37.1751 4.56481 31.2856 2.90515 25.3829 3.42762C19.4801 3.95009 13.9738 6.61844 9.906 10.9276C5.83825 15.2367 3.49142 20.8877 3.30974 26.8107C3.12805 32.7337 5.12411 38.5179 8.9201 43.0682C12.7161 47.6186 18.0486 50.6194 23.9082 51.5027C29.7678 52.386 35.748 51.0904 40.7166 47.8613C45.6853 44.6321 49.2977 39.6934 50.8701 33.98C51.0343 33.3349 51.4084 32.7628 51.9334 32.3537C52.4584 31.9445 53.1045 31.7216 53.7701 31.72H56.0501C56.714 31.7238 57.3579 31.9477 57.8809 32.3567C58.4038 32.7657 58.7764 33.3366 58.9401 33.98C60.1086 38.2394 62.4201 42.098 65.6243 45.138C68.8284 48.178 72.8031 50.2835 77.1181 51.2266C81.433 52.1697 85.9237 51.9144 90.104 50.4884C94.2842 49.0624 97.9947 46.52 100.834 43.1365C103.673 39.753 105.532 35.6573 106.21 31.2929C106.889 26.9285 106.36 22.4617 104.682 18.3762C103.004 14.2906 100.24 10.742 96.6895 8.11454C93.1392 5.48709 88.9378 3.88094 84.5401 3.46998V3.43998ZM27.5401 42.57C24.5734 42.57 21.6733 41.6902 19.2066 40.042C16.7398 38.3938 14.8173 36.0511 13.6819 33.3102C12.5466 30.5693 12.2496 27.5533 12.8284 24.6436C13.4071 21.7339 14.8358 19.0612 16.9335 16.9634C19.0313 14.8656 21.7041 13.437 24.6138 12.8582C27.5235 12.2794 30.5395 12.5765 33.2804 13.7118C36.0213 14.8471 38.364 16.7697 40.0122 19.2364C41.6604 21.7031 42.5401 24.6032 42.5401 27.57C42.5401 29.5406 42.1518 31.492 41.3974 33.3125C40.6429 35.1331 39.5371 36.7871 38.1432 38.1801C36.7493 39.5731 35.0945 40.6778 33.2735 41.431C31.4524 42.1843 29.5008 42.5713 27.5301 42.57H27.5401ZM82.3001 42.57C79.3334 42.57 76.4333 41.6902 73.9666 40.042C71.4998 38.3938 69.5773 36.0511 68.442 33.3102C67.3066 30.5693 67.0096 27.5533 67.5884 24.6436C68.1671 21.7339 69.5958 19.0612 71.6935 16.9634C73.7913 14.8656 76.4641 13.437 79.3738 12.8582C82.2835 12.2794 85.2995 12.5765 88.0404 13.7118C90.7813 14.8471 93.124 16.7697 94.7722 19.2364C96.4204 21.7031 97.3001 24.6032 97.3001 27.57C97.3001 29.5423 96.9112 31.4953 96.1555 33.3172C95.3998 35.139 94.2922 36.7939 92.8961 38.1872C91.5001 39.5805 89.843 40.6847 88.0196 41.4368C86.1963 42.1888 84.2425 42.5739 82.2701 42.57H82.3001Z" fill="#19A069"/>
<path d="M123.5 53.42V42.61H128.83V43.84H124.83V46.14H128.43V47.37H124.83V53.42H123.5Z" fill="#BCBCBC"/>
<path d="M130.101 53.4201V46.2101H131.271V47.5301C131.519 47.1218 131.862 46.7789 132.271 46.5301C132.735 46.271 133.259 46.1399 133.791 46.1501L134.111 47.4501C133.939 47.3989 133.76 47.3753 133.581 47.3801C133.281 47.3666 132.981 47.4166 132.702 47.5269C132.423 47.6372 132.17 47.8053 131.961 48.0201C131.525 48.5267 131.306 49.1837 131.351 49.8501V53.4301L130.101 53.4201Z" fill="#BCBCBC"/>
<path d="M138.56 53.56C137.89 53.567 137.231 53.3943 136.65 53.06C136.081 52.7325 135.606 52.2642 135.27 51.7C134.937 51.1261 134.761 50.474 134.761 49.81C134.761 49.1461 134.937 48.494 135.27 47.92C135.609 47.361 136.084 46.8966 136.65 46.57C137.234 46.2424 137.891 46.0703 138.56 46.0703C139.229 46.0703 139.887 46.2424 140.47 46.57C141.031 46.9 141.502 47.3638 141.84 47.92C142.174 48.494 142.35 49.1461 142.35 49.81C142.35 50.474 142.174 51.1261 141.84 51.7C141.505 52.2616 141.034 52.7294 140.47 53.06C139.89 53.3943 139.23 53.567 138.56 53.56ZM138.56 52.34C139.003 52.3412 139.438 52.2238 139.82 52C140.189 51.7695 140.498 51.4541 140.72 51.08C140.937 50.6935 141.05 50.258 141.05 49.815C141.05 49.3721 140.937 48.9366 140.72 48.55C140.5 48.1767 140.191 47.864 139.82 47.64C139.438 47.4109 139.001 47.2899 138.555 47.2899C138.11 47.2899 137.672 47.4109 137.29 47.64C136.919 47.864 136.61 48.1767 136.39 48.55C136.174 48.9366 136.06 49.3721 136.06 49.815C136.06 50.258 136.174 50.6935 136.39 51.08C136.613 51.4541 136.921 51.7695 137.29 52C137.676 52.2251 138.114 52.3425 138.56 52.34Z" fill="#BCBCBC"/>
<path d="M144.15 53.42V46.21H145.35V47.21C145.598 46.829 145.943 46.5215 146.35 46.32C146.747 46.1315 147.181 46.0325 147.62 46.03C148.092 46.0239 148.558 46.1411 148.97 46.37C149.39 46.6037 149.737 46.9501 149.97 47.37C150.234 46.9417 150.611 46.5954 151.06 46.37C151.501 46.1605 151.983 46.0512 152.47 46.05C152.995 46.0434 153.512 46.1744 153.97 46.43C154.419 46.6886 154.792 47.0612 155.05 47.51C155.329 48.0072 155.467 48.5705 155.45 49.14V53.4H154.15V49.29C154.171 49.0167 154.133 48.7423 154.038 48.4852C153.943 48.2281 153.794 47.9944 153.6 47.8C153.248 47.4703 152.783 47.2878 152.3 47.29C151.996 47.2888 151.695 47.3572 151.42 47.49C151.132 47.6335 150.889 47.8553 150.72 48.13C150.53 48.4755 150.437 48.8659 150.45 49.26V53.4H149.16V49.29C149.175 48.8958 149.081 48.5051 148.89 48.16C148.725 47.8776 148.482 47.6485 148.19 47.5C147.921 47.3517 147.618 47.2727 147.31 47.27C147.008 47.2705 146.71 47.3425 146.44 47.48C146.15 47.6166 145.907 47.8357 145.74 48.11C145.537 48.4577 145.439 48.8576 145.46 49.26V53.4L144.15 53.42Z" fill="#BCBCBC"/>
<path d="M161.561 53.42V42.61H166.901V43.84H162.901V46.14H166.511V47.37H162.901V53.42H161.561Z" fill="#BCBCBC"/>
<path d="M171.1 53.56C170.431 53.5655 169.772 53.393 169.19 53.06C168.624 52.7297 168.149 52.262 167.81 51.7C167.482 51.1241 167.31 50.4728 167.31 49.81C167.31 49.1473 167.482 48.496 167.81 47.92C168.153 47.3641 168.627 46.9006 169.19 46.57C169.775 46.2425 170.435 46.0704 171.105 46.0704C171.776 46.0704 172.435 46.2425 173.02 46.57C173.579 46.9003 174.046 47.3642 174.38 47.92C174.714 48.494 174.89 49.1461 174.89 49.81C174.89 50.474 174.714 51.1261 174.38 51.7C174.048 52.2735 173.569 52.7481 172.993 53.075C172.416 53.4019 171.763 53.5693 171.1 53.56ZM171.1 52.34C171.543 52.3412 171.978 52.2238 172.36 52C172.734 51.775 173.044 51.4584 173.26 51.08C173.593 50.5035 173.685 49.8192 173.517 49.1753C173.348 48.5314 172.933 47.9798 172.36 47.64C171.98 47.4107 171.544 47.2896 171.1 47.2896C170.656 47.2896 170.221 47.4107 169.84 47.64C169.465 47.8587 169.155 48.1726 168.94 48.55C168.717 48.9343 168.6 49.3707 168.6 49.815C168.6 50.2593 168.717 50.6958 168.94 51.08C169.157 51.4584 169.467 51.775 169.84 52C170.223 52.2238 170.658 52.3412 171.1 52.34Z" fill="#BCBCBC"/>
<path d="M179.99 53.56C179.321 53.567 178.661 53.3943 178.08 53.06C177.511 52.7325 177.036 52.2642 176.7 51.7C176.367 51.1261 176.191 50.474 176.191 49.81C176.191 49.1461 176.367 48.494 176.7 47.92C177.039 47.361 177.514 46.8966 178.08 46.57C178.664 46.2424 179.321 46.0703 179.99 46.0703C180.659 46.0703 181.317 46.2424 181.9 46.57C182.462 46.9 182.932 47.3638 183.27 47.92C183.604 48.494 183.78 49.1461 183.78 49.81C183.78 50.474 183.604 51.1261 183.27 51.7C182.936 52.2616 182.464 52.7294 181.9 53.06C181.32 53.3943 180.66 53.567 179.99 53.56ZM179.99 52.34C180.442 52.3388 180.885 52.2143 181.27 51.98C181.639 51.7495 181.948 51.434 182.17 51.06C182.387 50.6735 182.5 50.238 182.5 49.795C182.5 49.3521 182.387 48.9165 182.17 48.53C181.951 48.1567 181.641 47.844 181.27 47.6201C180.891 47.3885 180.455 47.2673 180.01 47.2701C179.566 47.2646 179.129 47.386 178.75 47.6201C178.375 47.841 178.061 48.1542 177.84 48.53C177.624 48.9165 177.51 49.3521 177.51 49.795C177.51 50.238 177.624 50.6735 177.84 51.06C178.064 51.4367 178.376 51.7526 178.75 51.98C179.124 52.2101 179.552 52.3345 179.99 52.34Z" fill="#BCBCBC"/>
<path d="M185.58 53.42V41.89H186.88V53.42H185.58Z" fill="#BCBCBC"/>
<path d="M191.05 53.56C190.645 53.5543 190.243 53.4834 189.86 53.35C189.445 53.2149 189.073 52.9736 188.78 52.65L189.14 51.23C189.349 51.5962 189.644 51.9053 190 52.13C190.338 52.346 190.73 52.4606 191.13 52.46C191.442 52.4803 191.75 52.3801 191.99 52.18C192.086 52.091 192.162 51.9824 192.212 51.8616C192.262 51.7408 192.285 51.6107 192.28 51.48C192.291 51.3507 192.269 51.2207 192.216 51.102C192.164 50.9833 192.083 50.8795 191.98 50.8C191.809 50.6798 191.624 50.5792 191.43 50.5L190.43 50.13C190.21 50.0376 189.996 49.9307 189.79 49.81C189.53 49.6582 189.308 49.4497 189.14 49.2C188.953 48.9011 188.859 48.5528 188.87 48.2C188.867 47.8293 188.96 47.464 189.14 47.14C189.329 46.8228 189.598 46.5607 189.92 46.38C190.286 46.186 190.696 46.0895 191.11 46.1C191.495 46.1021 191.876 46.1663 192.24 46.29C192.623 46.4183 192.968 46.642 193.24 46.94L192.88 48.36C192.7 48.0155 192.431 47.7254 192.1 47.52C191.804 47.3206 191.457 47.2096 191.1 47.2C190.814 47.187 190.533 47.2876 190.32 47.48C190.231 47.5612 190.161 47.6601 190.112 47.7703C190.064 47.8805 190.04 47.9997 190.04 48.12C190.037 48.3078 190.105 48.4898 190.23 48.63C190.387 48.8057 190.587 48.9369 190.81 49.01L191.81 49.38C192.035 49.4659 192.252 49.5696 192.46 49.69C192.736 49.8428 192.975 50.0545 193.16 50.31C193.376 50.6388 193.481 51.0276 193.46 51.42C193.47 51.7157 193.414 52.0099 193.297 52.2814C193.179 52.5529 193.003 52.7949 192.78 52.99C192.295 53.39 191.678 53.5933 191.05 53.56Z" fill="#BCBCBC"/>
<path d="M199.75 53.42V47.2899H198.12V46.21H199.79V43.8099H201.01V46.21H202.8V47.2899H201.05V53.42H199.75Z" fill="#BCBCBC"/>
<path d="M207.271 53.56C206.604 53.5657 205.948 53.393 205.371 53.06C204.802 52.7325 204.326 52.2642 203.991 51.7C203.657 51.1261 203.481 50.474 203.481 49.81C203.481 49.1461 203.657 48.494 203.991 47.92C204.329 47.361 204.804 46.8966 205.371 46.57C205.954 46.2424 206.612 46.0703 207.281 46.0703C207.95 46.0703 208.607 46.2424 209.191 46.57C209.752 46.9 210.222 47.3638 210.561 47.92C210.894 48.494 211.07 49.1461 211.07 49.81C211.07 50.474 210.894 51.1261 210.561 51.7C210.226 52.2616 209.754 52.7294 209.191 53.06C208.607 53.3951 207.944 53.5678 207.271 53.56ZM207.271 52.34C207.717 52.3425 208.155 52.2251 208.54 52C208.91 51.7695 209.218 51.4541 209.441 51.08C209.657 50.6935 209.77 50.258 209.77 49.815C209.77 49.3721 209.657 48.9366 209.441 48.55C209.221 48.1767 208.911 47.864 208.54 47.64C208.158 47.4109 207.721 47.2899 207.276 47.2899C206.83 47.2899 206.393 47.4109 206.01 47.64C205.64 47.864 205.33 48.1767 205.111 48.55C204.894 48.9366 204.781 49.3721 204.781 49.815C204.781 50.258 204.894 50.6935 205.111 51.08C205.333 51.4541 205.641 51.7695 206.01 52C206.393 52.2238 206.828 52.3412 207.271 52.34Z" fill="#BCBCBC"/>
<path d="M216.8 53.42V42.61H219.48C220.096 42.6076 220.706 42.7336 221.27 42.98C221.726 43.1648 222.133 43.4523 222.46 43.82C222.758 44.1514 222.985 44.5391 223.13 44.96C223.267 45.3455 223.338 45.7511 223.34 46.16C223.334 46.5645 223.267 46.9657 223.14 47.35C222.991 47.7666 222.767 48.1528 222.48 48.49C222.144 48.8582 221.731 49.1483 221.27 49.34C220.696 49.5718 220.079 49.6808 219.46 49.66H218.17V53.46L216.8 53.42ZM218.17 48.42H219.41C219.945 48.4432 220.475 48.326 220.95 48.08C221.299 47.8772 221.577 47.574 221.75 47.21C221.908 46.8752 221.989 46.5099 221.99 46.14C221.986 45.7748 221.908 45.4142 221.76 45.08C221.589 44.7124 221.31 44.4054 220.96 44.2C220.484 43.9496 219.948 43.8322 219.41 43.86H218.17V48.42Z" fill="#BCBCBC"/>
<path d="M225.09 53.42V41.89H226.39V47.23C226.649 46.8665 226.992 46.5713 227.39 46.37C227.791 46.1712 228.233 46.0684 228.68 46.07C229.18 46.0629 229.671 46.1945 230.1 46.45C230.549 46.71 230.919 47.0867 231.17 47.54C231.452 48.0757 231.59 48.6752 231.57 49.28V53.42H230.27V49.42C230.277 48.8733 230.097 48.3405 229.76 47.91C229.591 47.692 229.372 47.5182 229.121 47.4032C228.871 47.2883 228.596 47.2357 228.32 47.25C227.817 47.257 227.335 47.4534 226.97 47.8C226.763 48.0045 226.603 48.2519 226.501 48.5248C226.399 48.7977 226.358 49.0896 226.38 49.38V53.38L225.09 53.42Z" fill="#BCBCBC"/>
<path d="M237.17 53.56C236.472 53.5669 235.783 53.3947 235.17 53.06C234.58 52.7315 234.09 52.2494 233.752 51.6649C233.414 51.0804 233.241 50.4152 233.25 49.7401C233.245 49.0907 233.414 48.4518 233.74 47.8901C234.061 47.3393 234.52 46.881 235.07 46.56C235.628 46.2322 236.264 46.0628 236.91 46.07C237.551 46.0643 238.182 46.2264 238.74 46.5401C239.279 46.8512 239.733 47.291 240.06 47.82C240.392 48.3722 240.562 49.0062 240.55 49.6501V50.1801H235.85H235.21C234.99 50.1801 234.78 50.1801 234.57 50.1101C234.652 50.7356 234.962 51.3089 235.44 51.72C235.926 52.1474 236.553 52.379 237.2 52.3701C237.646 52.3696 238.084 52.2633 238.48 52.06C238.854 51.861 239.176 51.5767 239.42 51.2301L239.79 52.7001C239.434 52.9856 239.031 53.2087 238.6 53.3601C238.138 53.5061 237.655 53.5737 237.17 53.56ZM234.52 49.2001C234.954 49.1316 235.392 49.0982 235.83 49.1H238.74L239.26 49.1501C239.159 48.6 238.86 48.1058 238.42 47.7601C237.992 47.3997 237.45 47.2046 236.89 47.2101C236.326 47.2074 235.781 47.4141 235.36 47.7901C234.935 48.1566 234.64 48.6514 234.52 49.2001Z" fill="#BCBCBC"/>
<path d="M242.271 53.4201V46.2101H243.471V47.38C243.708 46.9626 244.053 46.617 244.471 46.38C244.887 46.152 245.356 46.0349 245.831 46.0401C246.333 46.0332 246.828 46.1646 247.26 46.4201C247.706 46.6807 248.072 47.0574 248.32 47.5101C248.605 48.0448 248.747 48.6443 248.73 49.25V53.3901H247.431V49.3901C247.437 48.8433 247.258 48.3106 246.921 47.88C246.752 47.6635 246.535 47.4905 246.286 47.3756C246.037 47.2608 245.764 47.2074 245.491 47.22C244.984 47.2245 244.498 47.4211 244.13 47.7701C243.926 47.9765 243.767 48.2242 243.665 48.4966C243.564 48.769 243.521 49.0599 243.54 49.35V53.35L242.271 53.4201Z" fill="#BCBCBC"/>
<path d="M254.2 53.56C253.538 53.5662 252.886 53.3975 252.31 53.0709C251.734 52.7443 251.255 52.2714 250.92 51.7C250.579 51.1285 250.399 50.4755 250.399 49.81C250.399 49.1446 250.579 48.4916 250.92 47.92C251.255 47.3614 251.727 46.8969 252.29 46.57C252.873 46.2424 253.531 46.0703 254.2 46.0703C254.869 46.0703 255.527 46.2424 256.11 46.57C256.674 46.8969 257.145 47.3614 257.48 47.92C257.814 48.494 257.99 49.1461 257.99 49.81C257.99 50.474 257.814 51.1261 257.48 51.7C257.148 52.2637 256.676 52.7322 256.11 53.06C255.53 53.3943 254.87 53.567 254.2 53.56ZM254.2 52.34C254.643 52.3412 255.078 52.2238 255.46 52C255.834 51.775 256.143 51.4584 256.36 51.08C256.583 50.6958 256.701 50.2593 256.701 49.815C256.701 49.3707 256.583 48.9343 256.36 48.55C256.146 48.1726 255.835 47.8587 255.46 47.64C255.081 47.4085 254.645 47.2873 254.2 47.29C253.755 47.2846 253.318 47.406 252.94 47.64C252.565 47.8587 252.255 48.1726 252.04 48.55C251.817 48.9343 251.7 49.3707 251.7 49.815C251.7 50.2593 251.817 50.6958 252.04 51.08C252.257 51.4584 252.567 51.775 252.94 52C253.321 52.2266 253.757 52.3442 254.2 52.34Z" fill="#BCBCBC"/>
<path d="M259.8 53.42V46.21H261V47.21C261.247 46.8283 261.593 46.5207 262 46.32C262.4 46.1301 262.837 46.031 263.28 46.03C263.749 46.0223 264.212 46.1397 264.62 46.37C265.037 46.6078 265.383 46.9532 265.62 47.37C265.879 46.9421 266.254 46.5956 266.7 46.37C267.144 46.1593 267.629 46.05 268.12 46.05C268.642 46.0451 269.155 46.1761 269.61 46.43C270.059 46.6886 270.432 47.0612 270.69 47.51C270.969 48.0072 271.107 48.5705 271.09 49.14V53.4H269.8V49.29C269.819 49.0161 269.779 48.7413 269.682 48.4843C269.585 48.2272 269.435 47.9939 269.24 47.8C268.893 47.4692 268.43 47.2863 267.95 47.29C267.645 47.2858 267.344 47.3544 267.07 47.49C266.78 47.6308 266.536 47.8532 266.37 48.13C266.176 48.4738 266.082 48.8655 266.1 49.26V53.4H264.8V49.29C264.815 48.8958 264.721 48.5051 264.53 48.16C264.365 47.8776 264.122 47.6485 263.83 47.5C263.561 47.3505 263.258 47.2714 262.95 47.27C262.648 47.2734 262.351 47.3452 262.08 47.48C261.792 47.6195 261.549 47.838 261.38 48.11C261.181 48.4596 261.084 48.8581 261.1 49.26V53.4L259.8 53.42Z" fill="#BCBCBC"/>
<path d="M276.68 53.56C275.982 53.5669 275.293 53.3947 274.68 53.06C274.09 52.7315 273.6 52.2494 273.262 51.6649C272.924 51.0804 272.751 50.4152 272.76 49.7401C272.75 49.09 272.92 48.4498 273.25 47.8901C273.571 47.3393 274.029 46.881 274.58 46.56C275.137 46.2322 275.774 46.0628 276.42 46.07C277.061 46.0643 277.692 46.2264 278.25 46.5401C278.789 46.8512 279.243 47.291 279.57 47.82C279.902 48.3722 280.071 49.0062 280.06 49.6501V50.1801H275.35H274.72C274.5 50.1801 274.29 50.1801 274.08 50.1101C274.162 50.7356 274.472 51.3089 274.95 51.72C275.435 52.1491 276.063 52.381 276.71 52.3701C277.152 52.3707 277.588 52.2643 277.98 52.06C278.359 51.8639 278.685 51.5792 278.93 51.2301L279.29 52.7001C278.937 52.9854 278.538 53.2086 278.11 53.3601C277.648 53.5061 277.165 53.5737 276.68 53.56ZM274.03 49.2001C274.46 49.1314 274.895 49.098 275.33 49.1H278.27L278.79 49.1501C278.689 48.6 278.39 48.1058 277.95 47.7601C277.522 47.3997 276.98 47.2046 276.42 47.2101C275.856 47.2074 275.311 47.4141 274.89 47.7901C274.457 48.1536 274.155 48.6488 274.03 49.2001Z" fill="#BCBCBC"/>
<path d="M281.771 53.42V46.21H282.971V47.3799C283.208 46.9625 283.553 46.6169 283.971 46.3799C284.387 46.1519 284.856 46.0348 285.331 46.0399C285.83 46.0328 286.321 46.1644 286.751 46.42C287.201 46.6775 287.571 47.0548 287.82 47.5099C288.105 48.0447 288.247 48.6442 288.23 49.2499V53.39H286.931V49.39C286.937 48.8432 286.758 48.3105 286.421 47.8799C286.252 47.6619 286.032 47.4881 285.782 47.3732C285.531 47.2582 285.256 47.2057 284.98 47.2199C284.477 47.2269 283.995 47.4233 283.63 47.77C283.426 47.9764 283.267 48.224 283.165 48.4965C283.064 48.7689 283.021 49.0598 283.04 49.3499V53.3499L281.771 53.42Z" fill="#BCBCBC"/>
<path d="M293.5 53.51C292.866 53.5161 292.243 53.3465 291.7 53.02C291.162 52.6887 290.715 52.2281 290.4 51.68C290.075 51.1142 289.906 50.4724 289.91 49.82C289.907 49.1645 290.076 48.5198 290.4 47.95C290.713 47.4026 291.16 46.9447 291.7 46.62C292.241 46.286 292.865 46.1126 293.5 46.12C293.98 46.1157 294.456 46.2075 294.9 46.39C295.328 46.5682 295.715 46.83 296.04 47.16V46.21H297.27V53.42H296.07V52.47C295.742 52.7937 295.355 53.0517 294.93 53.23C294.479 53.4246 293.991 53.5201 293.5 53.51ZM293.67 52.3399C294.11 52.3413 294.542 52.2238 294.92 52C295.286 51.7713 295.588 51.4551 295.8 51.08C296.129 50.5047 296.222 49.8238 296.057 49.1816C295.893 48.5395 295.485 47.9865 294.92 47.64C294.544 47.4088 294.111 47.2875 293.67 47.29C293.232 47.2872 292.802 47.4086 292.43 47.64C292.06 47.8618 291.754 48.1752 291.54 48.55C291.324 48.9365 291.21 49.372 291.21 49.815C291.21 50.2579 291.324 50.6935 291.54 51.08C291.756 51.4558 292.062 51.7719 292.43 52C292.805 52.2235 293.234 52.341 293.67 52.3399Z" fill="#BCBCBC"/>
<path d="M299.54 53.42V41.89H300.84V53.42H299.54Z" fill="#BCBCBC"/>
<path d="M150.39 0.619995C150.524 1.41252 150.575 2.21694 150.54 3.01999C150.522 3.85638 150.394 4.68678 150.16 5.48999C150.096 5.8351 149.949 6.15936 149.731 6.43466C149.513 6.70997 149.231 6.92803 148.91 7.06999C148.203 7.32498 147.451 7.43714 146.7 7.39999C145.755 7.36021 144.814 7.26338 143.88 7.11C142.849 6.941 141.805 6.85738 140.76 6.86C140.76 7.86 140.76 8.85999 140.76 9.90999C140.76 10.96 140.81 11.91 140.86 13.03C142.23 12.98 143.59 12.95 144.93 12.95C146.324 12.9479 147.715 12.8342 149.09 12.61C149.09 12.82 149.09 13.04 149.09 13.3C149.108 13.5397 149.108 13.7803 149.09 14.02V14.98C149.124 15.9648 148.844 16.9347 148.29 17.75C147.857 18.2855 147.241 18.6417 146.56 18.75C145.749 18.8578 144.925 18.8376 144.12 18.69C143.19 18.54 142.21 18.42 141.17 18.35C141.17 19.03 141.17 19.83 141.17 20.73C141.17 21.63 141.17 22.56 141.23 23.52C141.29 24.48 141.32 25.52 141.38 26.46C141.44 27.4 141.53 28.36 141.63 29.2C140.504 29.7596 139.241 29.9851 137.99 29.85C137.352 29.7694 136.734 29.5693 136.17 29.26C135.583 28.9259 135.119 28.41 134.85 27.79C134.458 26.8827 134.221 25.9159 134.15 24.93C134.01 23.69 133.92 22.37 133.9 20.93C133.88 19.49 133.9 18.19 133.9 16.88C133.9 15.57 133.97 14.51 133.99 13.7C134.04 12.58 134.1 11.5 134.17 10.44C134.24 9.38 134.3 8.43999 134.37 7.48999C133.363 7.43099 132.353 7.51516 131.37 7.73999C130.527 7.91008 129.74 8.28821 129.08 8.84C128.482 9.3623 128.068 10.0637 127.9 10.84C127.721 11.8613 127.807 12.9115 128.15 13.89C128.225 14.214 128.326 14.5316 128.45 14.84C128.53 15.0016 128.587 15.1731 128.62 15.35C128.62 15.47 128.62 15.53 128.49 15.54C128.301 15.5631 128.11 15.5631 127.92 15.54C127.16 15.4687 126.422 15.2442 125.75 14.88C124.972 14.4685 124.255 13.9501 123.62 13.34C122.953 12.6935 122.381 11.9563 121.92 11.15C121.461 10.3554 121.175 9.47283 121.08 8.56C120.998 7.62144 121.135 6.67668 121.48 5.8C121.929 4.73816 122.637 3.80621 123.54 3.09C124.548 2.29043 125.736 1.74816 127 1.50999C128.455 1.19246 129.933 0.995135 131.42 0.919998C133.27 0.819998 134.98 0.789991 136.53 0.849991L141.06 0.979996C142.53 0.979996 144.06 0.979996 145.49 0.979996C147.129 0.955875 148.765 0.835668 150.39 0.619995Z" fill="white"/>
<path d="M154.05 25.98C153.404 25.0182 152.902 23.9671 152.56 22.86C152.172 21.6284 151.924 20.3571 151.82 19.07C151.695 17.7195 151.695 16.3604 151.82 15.01C151.95 13.6859 152.242 12.3828 152.69 11.13C153.118 9.951 153.707 8.83706 154.44 7.81995C155.153 6.84254 156.071 6.03349 157.13 5.44996C157.948 5.00615 158.839 4.71156 159.76 4.57996C160.669 4.45139 161.594 4.50923 162.48 4.74996C163.416 4.98447 164.297 5.40255 165.07 5.97996C165.919 6.64257 166.637 7.45622 167.19 8.37995C167.905 9.59349 168.431 10.9085 168.75 12.28C169.41 15.1503 169.348 18.1394 168.57 20.98C168.185 22.4104 167.603 23.7803 166.84 25.05C166.205 26.1693 165.335 27.1381 164.29 27.89C163.083 28.6907 161.669 29.1216 160.22 29.13C159.009 29.1903 157.806 28.906 156.75 28.31C155.696 27.7317 154.776 26.9378 154.05 25.98ZM157.97 19.58C158.182 20.3449 158.546 21.0592 159.04 21.68C159.195 21.8989 159.393 22.0843 159.622 22.2252C159.85 22.3661 160.105 22.4595 160.37 22.5C160.629 22.5004 160.884 22.4399 161.115 22.3235C161.346 22.2072 161.547 22.0381 161.7 21.83C162.236 21.1325 162.615 20.3275 162.81 19.47C163.011 18.665 163.118 17.8395 163.13 17.01C163.14 16.2133 163.084 15.4171 162.96 14.63C162.877 13.6104 162.499 12.6372 161.87 11.83C161.684 11.6066 161.44 11.4376 161.166 11.3408C160.891 11.2441 160.596 11.223 160.31 11.28C159.665 11.484 159.116 11.9182 158.77 12.5C158.257 13.2607 157.893 14.1127 157.7 15.01C157.408 16.5187 157.501 18.0766 157.97 19.54V19.58ZM188.05 17.58C188.312 19.5193 188.096 21.4933 187.42 23.33C186.87 24.8266 185.948 26.1584 184.74 27.2C183.647 28.1295 182.311 28.7294 180.89 28.93C179.479 29.1391 178.038 28.9123 176.76 28.28C175.315 27.5223 174.107 26.3803 173.27 24.98C172.15 23.1388 171.466 21.066 171.27 18.92C171.117 17.7964 171.094 16.6589 171.2 15.53C171.293 14.4484 171.535 13.3849 171.92 12.37C172.449 10.9731 173.303 9.72202 174.41 8.71996C175.517 7.7472 176.937 7.20426 178.41 7.18996C179.524 7.17878 180.627 7.40016 181.65 7.83996C182.766 8.31411 183.783 8.9924 184.65 9.83996C185.597 10.7832 186.369 11.887 186.93 13.1C187.565 14.4942 187.945 15.9914 188.05 17.52V17.58ZM181.92 18.16C181.928 17.2534 181.762 16.3538 181.43 15.51C181.192 14.9078 180.811 14.3724 180.32 13.95C179.934 13.618 179.439 13.44 178.93 13.45C178.431 13.4673 177.957 13.6706 177.6 14.02C177.16 14.4707 176.846 15.0295 176.69 15.64C176.464 16.5113 176.416 17.4196 176.55 18.31C176.585 19.4464 176.973 20.5438 177.66 21.45C177.869 21.7333 178.144 21.9615 178.461 22.1148C178.779 22.2682 179.128 22.342 179.48 22.33C179.834 22.2705 180.171 22.1351 180.468 21.9332C180.765 21.7312 181.015 21.4675 181.2 21.16C181.771 20.2473 182.024 19.1714 181.92 18.1V18.16Z" fill="white"/>
<path d="M196.581 1.26001C196.918 1.29163 197.253 1.35185 197.581 1.44002C197.666 1.45742 197.745 1.49581 197.811 1.5517C197.878 1.60759 197.929 1.6792 197.961 1.76001C198.012 1.98037 198.012 2.20965 197.961 2.43001C197.904 2.85087 197.881 3.2755 197.891 3.70001C197.831 7.64001 197.797 11.5433 197.791 15.41C197.784 19.2767 197.867 23.1433 198.041 27.01C198.041 27.44 198.041 27.79 198.041 28.01C198.037 28.1312 198.008 28.2502 197.955 28.3589C197.901 28.4677 197.825 28.5636 197.731 28.64C197.46 28.8264 197.147 28.9432 196.821 28.98C196.235 29.0768 195.644 29.1403 195.051 29.17C194.638 29.2151 194.223 29.2151 193.811 29.17C193.403 29.1523 193 29.0817 192.611 28.96C192.227 28.8499 191.87 28.6627 191.561 28.41C191.234 28.144 190.979 27.8002 190.821 27.41C190.569 26.7688 190.407 26.0957 190.341 25.41C190.22 24.2975 190.163 23.179 190.171 22.06C190.171 18.81 190.271 15.63 190.481 12.54C190.683 9.42082 191.064 6.31575 191.621 3.24001C191.672 2.75632 191.904 2.30988 192.271 1.99001C192.631 1.67876 193.059 1.45616 193.521 1.34001C194.027 1.20943 194.548 1.14555 195.071 1.15001C195.576 1.14486 196.081 1.18165 196.581 1.26001Z" fill="white"/>
<path d="M213.27 9.98002C213.85 9.93002 214.44 9.90002 215.04 9.90002C215.64 9.90002 216.24 9.90002 216.85 9.82002C217.192 9.78667 217.536 9.84178 217.85 9.98002C218.085 10.0963 218.273 10.2907 218.38 10.53C218.507 10.7997 218.579 11.0922 218.59 11.39C218.59 11.72 218.59 12.07 218.59 12.45C218.411 14.9592 218.368 17.4762 218.46 19.99C218.55 22.56 218.56 25.07 218.46 27.53C218.46 27.91 218.46 28.2 218.46 28.41C218.483 28.5767 218.458 28.7463 218.39 28.9C218.354 28.9668 218.304 29.0252 218.244 29.0717C218.183 29.1182 218.114 29.1517 218.04 29.17C217.88 29.22 217.62 29.28 217.26 29.36C216.737 29.4391 216.209 29.4891 215.68 29.51C215.122 29.5407 214.562 29.5106 214.01 29.42C213.481 29.3381 212.966 29.1833 212.48 28.96C212.034 28.7633 211.648 28.453 211.36 28.06C211.108 27.637 210.957 27.1612 210.92 26.67C210.83 26.03 210.77 25.27 210.73 24.39C210.69 23.51 210.73 22.57 210.73 21.57C210.73 20.57 210.8 19.57 210.85 18.57C210.9 17.57 210.97 16.63 211.06 15.7L211.3 13.21C211.414 12.37 211.504 11.58 211.57 10.84C211.59 10.6871 211.656 10.5439 211.76 10.43C211.894 10.3 212.06 10.207 212.24 10.16C212.571 10.0438 212.919 9.98296 213.27 9.98002ZM218.6 4.98002C218.626 5.60674 218.455 6.22576 218.11 6.75002C217.8 7.20325 217.38 7.57116 216.89 7.82002C216.406 8.06104 215.871 8.18438 215.33 8.18002C214.774 8.18518 214.225 8.05822 213.728 7.80961C213.231 7.56099 212.8 7.19784 212.47 6.75002C212.104 6.23196 211.905 5.61434 211.9 4.98002C211.923 4.44484 212.075 3.92315 212.344 3.45998C212.613 2.99682 212.991 2.60613 213.445 2.32162C213.898 2.03711 214.415 1.86735 214.949 1.827C215.483 1.78665 216.019 1.87692 216.51 2.09002C216.903 2.25655 217.263 2.4938 217.57 2.79002C217.877 3.07637 218.131 3.41495 218.32 3.79002C218.495 4.14138 218.587 4.52777 218.59 4.92002L218.6 4.98002Z" fill="white"/>
<path d="M236.27 1.03998H238.21C238.618 1.01664 239.028 1.04014 239.43 1.10999C239.56 1.13003 239.683 1.17797 239.792 1.25051C239.901 1.32304 239.992 1.41842 240.06 1.52999C240.19 1.84679 240.248 2.18821 240.23 2.52999C240.177 6.92332 240.177 11.2966 240.23 15.65C240.284 20.0033 240.367 24.3633 240.48 28.73C240.179 28.8359 239.872 28.926 239.56 29L238.56 29.17C238.16 29.2316 237.755 29.2617 237.35 29.26C236.737 29.3107 236.12 29.2669 235.52 29.13C234.897 28.9972 234.327 28.6842 233.88 28.23C232.18 29.027 230.317 29.4141 228.44 29.36C227.009 29.2989 225.623 28.8382 224.44 28.03C223.367 27.2629 222.512 26.2288 221.96 25.03C221.386 23.7722 221.07 22.4121 221.03 21.03C220.983 19.6131 221.196 18.1996 221.66 16.86C222.116 15.4947 222.875 14.2503 223.88 13.22C224.967 12.1392 226.303 11.3424 227.77 10.9C229.577 10.3754 231.482 10.2829 233.33 10.63C233.33 9.68998 233.42 8.84998 233.44 8.09998C233.46 7.34998 233.49 6.67998 233.52 6.09998C233.55 5.51998 233.52 4.97999 233.59 4.49999C233.66 4.01999 233.66 3.55998 233.71 3.12998C233.76 2.69998 233.71 2.54998 233.78 2.28998C233.804 2.05181 233.89 1.82414 234.03 1.62998C234.218 1.40662 234.475 1.2519 234.76 1.18999C235.255 1.07244 235.763 1.02198 236.27 1.03998ZM232.77 16.61C231.821 16.2613 230.783 16.2402 229.82 16.55C229.107 16.8166 228.502 17.3125 228.1 17.96C227.731 18.5812 227.553 19.298 227.59 20.02C227.605 20.7286 227.843 21.4144 228.27 21.98C228.472 22.2497 228.726 22.4769 229.016 22.6485C229.306 22.8201 229.627 22.9327 229.96 22.98C230.934 23.0709 231.908 22.8237 232.72 22.28C232.72 22 232.72 21.6 232.72 21.1C232.72 20.6 232.72 20.05 232.72 19.5C232.72 18.95 232.72 18.4 232.72 17.88C232.72 17.36 232.8 16.92 232.8 16.61H232.77Z" fill="white"/>
<path d="M258.27 20.2301C258.437 19.9821 258.584 19.7213 258.71 19.4501C258.774 19.2703 258.877 19.1065 259.01 18.9701C259.14 18.8662 259.304 18.8129 259.47 18.8201C259.775 18.8379 260.076 18.8882 260.37 18.9701C260.894 19.1188 261.384 19.3704 261.81 19.7101C262.243 20.0408 262.586 20.4738 262.81 20.9701C263.035 21.5103 263.121 22.0981 263.06 22.6801C262.976 23.4363 262.715 24.1623 262.3 24.8001C261.783 25.7452 261.082 26.578 260.24 27.2501C259.447 27.8882 258.546 28.3793 257.58 28.7001C256.611 29.0165 255.6 29.185 254.58 29.2001C253.545 29.2122 252.513 29.0878 251.51 28.8301C250.507 28.5794 249.542 28.1961 248.64 27.6901C247.75 27.1958 246.941 26.5686 246.24 25.8301C245.176 24.6982 244.307 23.3971 243.67 21.9801C243.035 20.5824 242.603 19.1006 242.39 17.5801C242.238 16.1608 242.282 14.7274 242.52 13.3201C242.752 11.9186 243.218 10.5662 243.9 9.32006C244.579 8.07931 245.481 6.97422 246.56 6.06006C247.729 5.0859 249.093 4.37327 250.56 3.97007C251.769 3.60826 253.028 3.43952 254.29 3.47007C255.558 3.48679 256.813 3.73766 257.99 4.21006C259.137 4.67312 260.163 5.39129 260.99 6.31006C261.849 7.29061 262.405 8.49957 262.59 9.79006C262.68 10.4738 262.68 11.1663 262.59 11.8501C262.522 12.5386 262.35 13.2128 262.08 13.8501C261.808 14.4828 261.455 15.0777 261.03 15.6201C260.589 16.1797 260.046 16.6512 259.43 17.0101C258.758 17.4308 258.031 17.7571 257.27 17.9801C256.475 18.2135 255.663 18.3808 254.84 18.4801C253.997 18.5818 253.149 18.6386 252.3 18.6501C251.447 18.6501 250.617 18.6301 249.81 18.5901C250.063 19.7692 250.614 20.8639 251.41 21.7701C251.995 22.4194 252.793 22.838 253.66 22.9501C254.519 23.0277 255.38 22.8203 256.11 22.3601C256.983 21.8243 257.722 21.0956 258.27 20.2301ZM253.97 12.8401C254.785 12.7827 255.551 12.4267 256.12 11.8401C256.311 11.6402 256.455 11.3996 256.54 11.1363C256.625 10.8731 256.649 10.594 256.61 10.3201C256.558 10.0493 256.447 9.79302 256.287 9.56869C256.126 9.34435 255.919 9.15723 255.68 9.02006C255.02 8.65009 254.245 8.54296 253.51 8.72007C252.599 8.88261 251.764 9.33504 251.13 10.0101C250.458 10.6811 249.934 11.4849 249.59 12.3701C250.216 12.5433 250.85 12.6835 251.49 12.7901C252.308 12.9463 253.147 12.9632 253.97 12.8401Z" fill="white"/>
<path d="M280.27 4.58004L282.04 4.71003C282.464 4.71948 282.882 4.81119 283.27 4.98003C283.601 5.14369 283.858 5.42567 283.99 5.77002C284.172 6.30357 284.25 6.86708 284.22 7.43003C284.22 8.90003 284.16 10.43 284.11 12.02L283.96 16.8C283.9 18.4 283.87 19.99 283.86 21.58C283.85 23.17 283.86 24.71 283.92 26.2C283.929 26.7183 283.966 27.2357 284.03 27.75C284.09 28.0109 284.066 28.2841 283.96 28.53C283.893 28.6285 283.806 28.7114 283.704 28.7735C283.602 28.8356 283.489 28.8753 283.37 28.89L281.94 29.17C281.504 29.2486 281.063 29.302 280.62 29.33C280.188 29.3527 279.754 29.3191 279.33 29.23C278.928 29.1502 278.542 29.0013 278.19 28.79C277.833 28.5795 277.537 28.2797 277.33 27.92C277.274 27.8569 277.246 27.7743 277.25 27.69C276.429 28.0032 275.573 28.2148 274.7 28.32C273.928 28.4112 273.147 28.391 272.38 28.26C271.113 28.0957 269.902 27.6405 268.84 26.93C267.86 26.2528 267.018 25.394 266.36 24.4C265.691 23.3756 265.198 22.2468 264.9 21.06C264.58 19.8427 264.418 18.5889 264.42 17.33C264.387 15.2954 264.811 13.2793 265.66 11.43C266.434 9.73741 267.595 8.25067 269.05 7.09003C270.521 5.92847 272.227 5.10251 274.05 4.67003C276.095 4.20572 278.213 4.17507 280.27 4.58004ZM276.84 10.9C276.38 10.7524 275.894 10.7028 275.413 10.7545C274.933 10.8062 274.469 10.9579 274.05 11.2C273.277 11.6842 272.656 12.3776 272.26 13.2C271.831 14.0559 271.589 14.9933 271.55 15.95C271.485 16.8572 271.628 17.7672 271.97 18.61C272.273 19.3612 272.843 19.9739 273.57 20.33C274.029 20.5086 274.519 20.5918 275.011 20.5746C275.502 20.5575 275.985 20.4402 276.43 20.23L276.84 10.9Z" fill="white"/>
<path d="M287.02 19.85C287.254 19.4367 287.444 19.1034 287.59 18.85C287.688 18.6513 287.841 18.4848 288.03 18.3701C288.114 18.3434 288.203 18.3406 288.287 18.3618C288.372 18.383 288.449 18.4274 288.51 18.49C288.783 18.7305 289.037 18.9912 289.27 19.27C289.757 19.8553 290.299 20.3912 290.89 20.8701C291.384 21.2849 291.913 21.6563 292.47 21.9801C293.127 22.3528 293.866 22.5556 294.62 22.57C294.832 22.5777 295.042 22.5376 295.236 22.4527C295.43 22.3679 295.602 22.2405 295.74 22.0801C295.842 21.9153 295.903 21.7282 295.917 21.5349C295.931 21.3416 295.898 21.1478 295.82 20.9701C295.618 20.4662 295.27 20.0343 294.82 19.7301C294.301 19.364 293.76 19.0301 293.2 18.7301L291.6 17.85L290.08 17.0101C289.583 16.7274 289.117 16.3922 288.69 16.0101C287.982 15.436 287.389 14.7338 286.94 13.9401C286.514 13.1863 286.21 12.3694 286.04 11.52C285.88 10.6863 285.853 9.83228 285.96 8.99005C286.077 8.14802 286.331 7.33065 286.71 6.57005C287.338 5.28697 288.357 4.23644 289.62 3.57005C290.983 2.85946 292.485 2.45666 294.02 2.39006C294.915 2.34603 295.811 2.45423 296.67 2.71005C297.539 2.96698 298.364 3.35115 299.12 3.85005C299.834 4.32509 300.46 4.92063 300.97 5.61006C301.442 6.23117 301.714 6.98092 301.75 7.76005C301.817 8.28825 301.704 8.82344 301.43 9.28006C301.153 9.68189 300.795 10.0223 300.38 10.2801C299.87 10.6601 299.48 10.93 299.22 11.1C299.023 11.2387 298.791 11.3185 298.55 11.3301C298.455 11.3162 298.365 11.2811 298.285 11.2275C298.205 11.1738 298.139 11.1029 298.09 11.02C297.97 10.83 297.8 10.57 297.6 10.24C297.388 9.93493 297.143 9.65335 296.87 9.40005C296.589 9.14584 296.284 8.91821 295.96 8.72006C295.339 8.33545 294.608 8.16671 293.88 8.24005C293.654 8.26777 293.439 8.35189 293.253 8.48469C293.068 8.61749 292.919 8.79471 292.82 9.00006C292.741 9.23611 292.715 9.48687 292.744 9.73419C292.774 9.98151 292.858 10.2192 292.99 10.4301C293.379 11.0918 293.967 11.6134 294.67 11.9201L296.55 12.85C297.217 13.17 297.847 13.5201 298.44 13.9001C299.048 14.2792 299.626 14.7038 300.17 15.1701C300.728 15.6537 301.231 16.1969 301.67 16.7901C302.347 17.7002 302.815 18.7484 303.04 19.8601C303.25 20.8491 303.25 21.8711 303.04 22.8601C302.602 24.8667 301.446 26.6444 299.79 27.8601C298.938 28.4782 297.983 28.9419 296.97 29.2301C295.897 29.5427 294.771 29.6345 293.66 29.5001C292.231 29.3772 290.842 28.9619 289.58 28.2801C288.307 27.5451 287.206 26.5461 286.35 25.35C286.198 25.16 286.064 24.9558 285.95 24.74C285.795 24.4298 285.716 24.0869 285.72 23.74C285.727 23.204 285.811 22.6718 285.97 22.16C286.223 21.3492 286.575 20.5732 287.02 19.85Z" fill="white"/>
</svg>
