<svg width="36" height="36" viewBox="0 0 36 36" fill="none" xmlns="http://www.w3.org/2000/svg">
<path d="M3.22129 17.7149C11.0923 14.2856 16.341 12.0248 18.9671 10.9325C26.4653 7.81375 28.0233 7.27199 29.0388 7.2541C29.2621 7.25017 29.7617 7.30552 30.085 7.56802C30.3582 7.78966 30.4334 8.08907 30.4694 8.29921C30.5054 8.50936 30.5501 8.98807 30.5145 9.36211C30.1082 13.6315 28.35 23.9921 27.4555 28.7738C27.0771 30.7971 26.3319 31.4754 25.6104 31.5419C24.0425 31.6862 22.8518 30.5057 21.3332 29.5103C18.9569 27.9525 17.6143 26.9828 15.3076 25.4627C12.6419 23.706 14.37 22.7405 15.8892 21.1626C16.2868 20.7497 23.1952 14.466 23.3289 13.8959C23.3456 13.8246 23.3611 13.5589 23.2032 13.4186C23.0454 13.2782 22.8125 13.3262 22.6443 13.3644C22.406 13.4185 18.6096 15.9276 11.2555 20.892C10.1779 21.6318 9.20191 21.9924 8.32744 21.9735C7.36339 21.9527 5.50897 21.4284 4.1304 20.9804C2.43952 20.4306 1.09565 20.1401 1.21267 19.2066C1.27362 18.7205 1.94316 18.2232 3.22129 17.7149Z" fill="#19A069"/>
</svg>
