<svg width="30" height="30" viewBox="0 0 30 30" fill="none" xmlns="http://www.w3.org/2000/svg">
<path d="M7.88041 24.7416L8.96751 25.3755C10.7836 26.4345 12.8476 27 15.0015 27C21.6289 27 27.0015 21.6275 27.0015 15C27.0015 8.37258 21.6289 3 15.0015 3C8.37405 3 3.00146 8.37258 3.00146 15C3.00146 17.1544 3.56731 19.2192 4.62699 21.0357L5.26056 22.1217L4.28032 25.7241L7.88041 24.7416ZM0.00773513 30L2.03568 22.5472C0.742405 20.3304 0.00146484 17.7517 0.00146484 15C0.00146484 6.71572 6.71719 0 15.0015 0C23.2857 0 30.0015 6.71572 30.0015 15C30.0015 23.2842 23.2857 30 15.0015 30C12.2506 30 9.67276 29.2596 7.45628 27.967L0.00773513 30ZM9.58847 7.96249C9.78929 7.94838 9.99079 7.94622 10.1919 7.95603C10.2731 7.96137 10.354 7.97076 10.4349 7.9801C10.6738 8.00769 10.9365 8.15318 11.0248 8.35341C11.4723 9.36804 11.9065 10.3885 12.3273 11.4144C12.4201 11.6409 12.3642 11.9345 12.1875 12.2186C12.0978 12.3642 11.9569 12.5685 11.7937 12.7775C11.6241 12.9945 11.259 13.3937 11.259 13.3937C11.259 13.3937 11.1111 13.5709 11.1668 13.7916C11.1885 13.875 11.2578 13.9965 11.3206 14.0986C11.3554 14.1552 11.3877 14.2058 11.4087 14.2407C11.7925 14.8816 12.3085 15.5314 12.9388 16.1424C13.1194 16.3174 13.2946 16.4961 13.483 16.662C14.1855 17.2813 14.9802 17.7875 15.8385 18.1623L15.8461 18.1658C15.9729 18.2204 16.038 18.2502 16.2235 18.329C16.3171 18.3686 16.4128 18.4028 16.5111 18.4287C16.5466 18.438 16.5831 18.4433 16.6197 18.4458C16.8622 18.4604 17.0025 18.3048 17.0623 18.2332C18.1476 16.9185 18.2469 16.8327 18.2544 16.8333V16.8357C18.397 16.6854 18.6213 16.6332 18.8214 16.6455C18.9127 16.6511 19.0036 16.6686 19.0867 16.7066C19.8844 17.0704 21.1887 17.6381 21.1887 17.6381L22.0609 18.0301C22.207 18.1006 22.3404 18.2667 22.3468 18.4281C22.3507 18.5285 22.3615 18.6905 22.3257 18.9869C22.2787 19.3749 22.1607 19.8421 22.0434 20.087C21.9609 20.2587 21.8541 20.4111 21.7299 20.5401C21.5614 20.715 21.4363 20.8212 21.2338 20.9721C21.1105 21.0639 21.0466 21.1071 21.0466 21.1071C20.8383 21.2385 20.7208 21.3042 20.4726 21.4363C20.0865 21.642 19.6599 21.7602 19.2229 21.7827C18.9444 21.7969 18.6666 21.8171 18.3883 21.8021C18.376 21.8013 17.536 21.6723 17.536 21.6723C15.4032 21.1113 13.4307 20.0604 11.7755 18.603C11.4371 18.3051 11.1232 17.9827 10.8029 17.6638C9.46931 16.3362 8.45972 14.9046 7.84753 13.5504C7.54564 12.8826 7.35448 12.1674 7.35147 11.4315C7.34593 10.5211 7.64398 9.6348 8.19853 8.91279C8.30785 8.77046 8.4116 8.62282 8.59063 8.45379C8.78022 8.27477 8.90088 8.17866 9.03085 8.11217C9.2041 8.02353 9.39439 7.97613 9.58847 7.96249Z" fill="#19A069"/>
</svg>
