<svg width="64" height="64" viewBox="0 0 64 64" fill="none" xmlns="http://www.w3.org/2000/svg">
<rect width="64" height="64" rx="12" fill="url(#paint0_linear_115_143)" fill-opacity="0.64"/>
<path d="M45.6912 33.6538V43.0813H31.9156V38.0075C31.9156 36.8038 30.9368 35.8307 29.7387 35.8307H25.0643V33.6482C25.0643 33.1644 25.1825 32.6863 25.4637 32.2925C25.4637 32.2925 25.4675 32.2888 25.475 32.2813C25.8687 31.7357 26.4312 31.325 27.0725 31.1113L30.8637 29.4463L33.7606 36.4438L34.4131 32.3432L33.6087 30.9538C33.4512 30.6669 33.6537 30.3125 33.98 30.3125H36.77C37.1018 30.3125 37.3043 30.6669 37.1412 30.9538L36.3368 32.3432L36.995 36.4438L39.8862 29.4463L43.6606 31.1113C44.3187 31.325 44.8812 31.7357 45.275 32.2813H45.2806C45.5731 32.675 45.6912 33.17 45.6912 33.6538ZM29.4181 20.8682V22.1675C29.4181 22.3363 29.4406 22.5163 29.4687 22.7075C29.5306 23.0788 29.66 23.4332 29.8175 23.6975C29.9862 23.9507 30.1662 24.0913 30.3293 24.1644C30.5768 25.0363 30.9256 25.8575 31.3306 26.4538C32.3825 28.0175 33.7775 28.85 35.375 28.85C36.9725 28.85 38.3675 28.0175 39.4193 26.4538C39.8131 25.8575 40.1731 25.0363 40.4093 24.1644C40.5781 24.0913 40.7581 23.9507 40.9212 23.6975C41.09 23.4332 41.2193 23.0788 41.2812 22.7075C41.315 22.5163 41.3262 22.3363 41.3262 22.1675V20.7725C41.3712 20.6657 41.3881 20.5925 41.3768 20.5925C41.4837 19.7319 41.315 18.5732 41.0562 17.87C40.6175 16.7 39.7175 15.7719 38.5868 15.2657C34.7562 13.5444 31.5106 15.5019 30.9481 15.8282C30.1606 16.295 30.5656 17.1275 30.5656 17.1275C29.4293 18.0107 29.255 19.6194 29.3506 20.615C29.3506 20.615 29.3843 20.7219 29.4125 20.8682H29.4181ZM19.3606 49.4375H24.0406V48.4588C23.5512 48.65 22.9943 48.65 22.4712 48.4307C21.92 48.2 21.4925 47.705 21.3406 47.1257C20.975 45.7644 21.9987 44.5325 23.2981 44.5325C23.5568 44.5325 23.81 44.5832 24.0462 44.6732V43.7057H22.0662C21.8468 43.7057 21.65 43.565 21.5825 43.3569C21.515 43.1488 21.5881 42.9182 21.7681 42.7888C22.0381 42.5919 22.1956 42.2938 22.1956 41.9619C22.1956 41.3994 21.74 40.9438 21.1775 40.9438C20.615 40.9438 20.1593 41.3994 20.1593 41.9619C20.1593 42.2882 20.3168 42.5919 20.5868 42.7888C20.7668 42.9182 20.84 43.1432 20.7725 43.3513C20.705 43.5594 20.5137 43.7 20.2887 43.7H18.3087V48.3744C18.3087 48.9538 18.7812 49.4263 19.3606 49.4263V49.4375Z" fill="white"/>
<path d="M30.7906 43.7V48.3856C30.7906 48.965 30.3181 49.4375 29.7387 49.4375H25.0587V47.4575C25.0587 47.2381 24.9181 47.0412 24.71 46.9737C24.5019 46.9062 24.2769 46.9793 24.1419 47.1593C23.9506 47.435 23.6469 47.5868 23.3206 47.5868C22.7581 47.5868 22.2969 47.1312 22.2969 46.5687C22.2969 46.0062 22.7581 45.5506 23.3206 45.5506C23.6469 45.5506 23.9506 45.7081 24.1419 45.9781C24.2713 46.1581 24.5019 46.2312 24.71 46.1637C24.9181 46.0962 25.0587 45.905 25.0587 45.68V43.7H26.0319C25.9362 43.9362 25.8912 44.1893 25.8912 44.4481C25.8912 45.4718 26.6506 46.3212 27.6406 46.4562C27.7362 46.4731 27.8319 46.4787 27.9275 46.4787C28.0231 46.4787 28.1188 46.4731 28.2144 46.4562C29.1988 46.3156 29.9525 45.4718 29.9525 44.4481C29.9525 44.1893 29.9075 43.9362 29.8119 43.7H30.7906Z" fill="white"/>
<path d="M30.7906 38.0075V42.6818H28.8106C28.5912 42.6818 28.3944 42.8225 28.3269 43.0362C28.2594 43.2443 28.3381 43.4693 28.5181 43.5987C28.7825 43.7956 28.9456 44.0993 28.9456 44.4256C28.9456 44.9881 28.4844 45.4437 27.9219 45.4437C27.3594 45.4437 26.9037 44.9881 26.9037 44.4256C26.9037 44.0993 27.0612 43.7956 27.3312 43.5987C27.5112 43.475 27.5844 43.2443 27.5169 43.0362C27.4494 42.8225 27.2581 42.6818 27.0331 42.6818H25.0531V41.7143C25.0531 41.7143 25.0587 41.7143 25.0644 41.7143C25.295 41.7987 25.5481 41.8493 25.8012 41.8493C26.9206 41.8493 27.8319 40.9381 27.8319 39.8131C27.8319 38.6881 26.9206 37.7825 25.8012 37.7825C25.5481 37.7825 25.295 37.8331 25.0644 37.9231C25.0587 37.9231 25.0587 37.9287 25.0531 37.9287V36.95H29.7387C30.3181 36.95 30.7906 37.4225 30.7906 38.0018V38.0075Z" fill="white"/>
<path d="M24.9518 40.4149C25.1431 40.6793 25.4525 40.8424 25.7787 40.8424C26.3412 40.8424 26.7968 40.3868 26.7968 39.8243C26.7968 39.2618 26.3412 38.8062 25.7787 38.8062C25.4525 38.8062 25.1487 38.9637 24.9518 39.2337C24.8225 39.4137 24.5975 39.4868 24.3837 39.4193C24.1756 39.3518 24.035 39.1606 24.035 38.9356V36.9556H19.3606C18.7812 36.9556 18.3087 37.4281 18.3087 38.0074V42.6874H19.2875C19.13 42.2881 19.1018 41.8324 19.22 41.3937C19.4168 40.6681 20.03 40.0943 20.7725 39.9537C22.0718 39.7006 23.2137 40.6906 23.2137 41.9449C23.2137 42.2037 23.1631 42.4568 23.0731 42.6931H24.0462V40.7131C24.0462 40.4937 24.1868 40.2968 24.395 40.2293C24.6087 40.1618 24.8337 40.2349 24.9631 40.4149H24.9518Z" fill="white"/>
<defs>
<linearGradient id="paint0_linear_115_143" x1="43.975" y1="116.876" x2="96.083" y2="79.6905" gradientUnits="userSpaceOnUse">
<stop stop-color="#002516"/>
<stop offset="1" stop-color="#007443"/>
</linearGradient>
</defs>
</svg>
