<svg width="64" height="64" viewBox="0 0 64 64" fill="none" xmlns="http://www.w3.org/2000/svg">
<rect width="64" height="64" rx="12" fill="url(#paint0_linear_115_132)" fill-opacity="0.64"/>
<g clip-path="url(#clip0_115_132)">
<path d="M16.7602 31.335C16.8465 31.3959 16.9482 31.4312 17.0537 31.4369C17.1591 31.4426 17.2641 31.4185 17.3564 31.3673L19.3437 30.2688L21.3308 31.3673C21.3462 31.4613 21.3852 31.5499 21.4442 31.6246C21.5032 31.6994 21.5802 31.758 21.668 31.7948C21.7559 31.8317 21.8516 31.8456 21.9463 31.8354C22.041 31.8251 22.1315 31.7909 22.2094 31.736C22.2873 31.6812 22.3499 31.6074 22.3915 31.5217C22.433 31.436 22.4521 31.3412 22.447 31.2461C22.4419 31.1509 22.4126 31.0587 22.3621 30.978C22.3115 30.8973 22.2413 30.8307 22.1579 30.7846L21.7723 28.4193L23.4027 26.7486C23.4753 26.6747 23.5259 26.5822 23.5492 26.4812C23.5724 26.3803 23.5673 26.2749 23.5344 26.1767C23.5016 26.0785 23.4422 25.9913 23.3629 25.9247C23.2835 25.8581 23.1874 25.8148 23.0849 25.7994L20.8546 25.4591L19.8528 23.3236C19.8075 23.2268 19.7356 23.1448 19.6455 23.0875C19.5553 23.0301 19.4506 22.9996 19.3437 22.9996C19.2369 22.9996 19.1322 23.0301 19.042 23.0875C18.9519 23.1448 18.8799 23.2268 18.8347 23.3236L17.832 25.4588L15.6026 25.7994C15.5004 25.8152 15.4046 25.8588 15.3256 25.9254C15.2466 25.992 15.1874 26.0791 15.1546 26.1771C15.1218 26.2751 15.1165 26.3802 15.1395 26.481C15.1625 26.5817 15.2127 26.6742 15.2847 26.7484L16.914 28.4195L16.529 30.7849C16.512 30.889 16.5247 30.9958 16.5656 31.0931C16.6065 31.1904 16.6739 31.2742 16.7602 31.335ZM14.9908 18.9603C15.1669 19.084 15.3987 19.0964 15.5871 18.9923L16.5312 18.4703L17.4754 18.9923C17.5678 19.0434 17.6727 19.0675 17.7781 19.0618C17.8836 19.0561 17.9852 19.0208 18.0716 18.96C18.1579 18.8992 18.2254 18.8153 18.2663 18.718C18.3072 18.6207 18.3198 18.5138 18.3028 18.4096L18.1161 17.2654L18.9027 16.4591C18.9751 16.3851 19.0256 16.2926 19.0487 16.1918C19.0719 16.0909 19.0667 15.9856 19.0339 15.8875C19.001 15.7894 18.9417 15.7022 18.8625 15.6357C18.7833 15.5691 18.6872 15.5257 18.5849 15.5102L17.521 15.3479L17.0403 14.3236C16.9949 14.2269 16.9229 14.1452 16.8327 14.088C16.7426 14.0308 16.638 14.0004 16.5312 14.0004C16.4245 14.0004 16.3199 14.0308 16.2297 14.088C16.1396 14.1452 16.0676 14.2269 16.0222 14.3236L15.5412 15.3476L14.4776 15.5099C14.3754 15.5255 14.2795 15.569 14.2004 15.6356C14.1213 15.7021 14.062 15.7892 14.0292 15.8872C13.9964 15.9853 13.9912 16.0905 14.0142 16.1912C14.0372 16.292 14.0876 16.3845 14.1597 16.4585L14.9456 17.2652L14.7599 18.4096C14.7429 18.5137 14.7556 18.6206 14.7964 18.7179C14.8372 18.8152 14.9046 18.8994 14.9908 18.9603ZM28.1474 17.4128L26.8891 17.2207L26.3216 16.0114C26.2761 15.9147 26.2041 15.833 26.114 15.7758C26.0238 15.7185 25.9193 15.6881 25.8125 15.6881C25.7057 15.6881 25.6011 15.7185 25.511 15.7758C25.4209 15.833 25.3489 15.9147 25.3034 16.0114L24.7353 17.2207L23.4776 17.4128C23.3754 17.4286 23.2796 17.4722 23.2006 17.5388C23.1216 17.6054 23.0624 17.6925 23.0296 17.7905C22.9968 17.8885 22.9915 17.9936 23.0145 18.0944C23.0375 18.1951 23.0877 18.2877 23.1597 18.3618L24.0862 19.3121L23.8671 20.6599C23.8502 20.764 23.8629 20.8708 23.9039 20.968C23.9448 21.0653 24.0122 21.1491 24.0985 21.2098C24.1847 21.2706 24.2863 21.3058 24.3917 21.3116C24.497 21.3173 24.6019 21.2933 24.6942 21.2423L25.8125 20.6244L26.9307 21.2423C27.0232 21.2934 27.1281 21.3174 27.2335 21.3117C27.3389 21.306 27.4406 21.2707 27.527 21.21C27.6133 21.1492 27.6807 21.0653 27.7215 20.9679C27.7624 20.8706 27.775 20.7637 27.7579 20.6596L27.538 19.3121L28.4652 18.3615C28.5376 18.2875 28.5881 18.195 28.6113 18.0942C28.6344 17.9933 28.6293 17.8881 28.5964 17.79C28.5636 17.6919 28.5043 17.6047 28.425 17.5382C28.3458 17.4716 28.2497 17.4283 28.1474 17.4128ZM49.5224 15.5104L48.4587 15.3479L47.9778 14.3233C47.9323 14.2268 47.8602 14.1452 47.7701 14.088C47.6799 14.0309 47.5754 14.0006 47.4687 14.0006C47.3619 14.0006 47.2574 14.031 47.1673 14.0882C47.0772 14.1454 47.0052 14.227 46.9597 14.3236L46.4787 15.3479L45.4151 15.5102C45.3129 15.5258 45.217 15.5694 45.1379 15.636C45.0588 15.7026 44.9996 15.7897 44.9668 15.8877C44.9339 15.9858 44.9287 16.0909 44.9517 16.1917C44.9748 16.2925 45.0251 16.385 45.0972 16.4591L45.8839 17.2654L45.6972 18.4096C45.68 18.5138 45.6926 18.6207 45.7335 18.7182C45.7744 18.8156 45.8419 18.8995 45.9282 18.9603C46.0146 19.0211 46.1163 19.0564 46.2218 19.062C46.3273 19.0677 46.4322 19.0435 46.5246 18.9923L47.4687 18.4703L48.4129 18.9923C48.5053 19.0432 48.6101 19.0671 48.7154 19.0613C48.8207 19.0555 48.9222 19.0202 49.0085 18.9595C49.0947 18.8988 49.1621 18.8151 49.2031 18.7179C49.244 18.6207 49.2568 18.514 49.2401 18.4099L49.0544 17.2654L49.8405 16.4588C49.9127 16.3848 49.963 16.2923 49.9861 16.1915C50.0091 16.0907 50.0039 15.9855 49.971 15.8874C49.9381 15.7894 49.8789 15.7023 49.7997 15.6358C49.7206 15.5692 49.6247 15.526 49.5224 15.5104ZM40.9707 16.8801C40.9379 16.7821 40.8787 16.695 40.7996 16.6285C40.7205 16.5619 40.6246 16.5184 40.5224 16.5027L39.0703 16.2808L38.4153 14.8861C38.3699 14.7894 38.2979 14.7077 38.2077 14.6505C38.1176 14.5933 38.013 14.5629 37.9062 14.5629C37.7995 14.5629 37.6949 14.5933 37.6047 14.6505C37.5146 14.7077 37.4426 14.7894 37.3972 14.8861L36.7427 16.2811L35.2901 16.5027C35.1879 16.5184 35.0921 16.5619 35.013 16.6285C34.934 16.6951 34.8748 16.7822 34.842 16.8802C34.8092 16.9781 34.804 17.0833 34.8269 17.184C34.8499 17.2848 34.9002 17.3773 34.9722 17.4514L36.0402 18.546L35.787 20.0971C35.77 20.2013 35.7826 20.3082 35.8234 20.4055C35.8643 20.5029 35.9317 20.5868 36.018 20.6476C36.1044 20.7084 36.2061 20.7437 36.3115 20.7494C36.4169 20.7551 36.5218 20.731 36.6142 20.6798L37.9062 19.9654L39.1983 20.6798C39.2907 20.7308 39.3955 20.7548 39.5009 20.7491C39.6062 20.7433 39.7078 20.7081 39.7941 20.6473C39.8803 20.5866 39.9478 20.5028 39.9887 20.4055C40.0296 20.3083 40.0424 20.2015 40.0255 20.0974L39.7732 18.546L40.8405 17.4514C40.9126 17.3772 40.9629 17.2847 40.9859 17.1839C41.0088 17.0831 41.0036 16.9782 40.9707 16.8801ZM49.5224 24.6902L46.5145 24.2309L45.1653 21.3548C45.1199 21.2582 45.0479 21.1765 44.9577 21.1192C44.8676 21.062 44.763 21.0316 44.6562 21.0316C44.5495 21.0316 44.4449 21.062 44.3547 21.1192C44.2646 21.1765 44.1926 21.2582 44.1472 21.3548L42.7969 24.2309L39.7903 24.6902C39.6882 24.7059 39.5923 24.7494 39.5132 24.8159C39.4341 24.8825 39.3748 24.9696 39.342 25.0676C39.3091 25.1656 39.3038 25.2708 39.3267 25.3716C39.3497 25.4724 39.3999 25.565 39.472 25.6391L41.6635 27.8869L41.1462 31.0661C41.1293 31.1703 41.142 31.2771 41.183 31.3744C41.2239 31.4717 41.2914 31.5555 41.3777 31.6163C41.464 31.6771 41.5656 31.7123 41.671 31.718C41.7764 31.7237 41.8813 31.6997 41.9737 31.6486L44.6562 30.1658L47.3385 31.6486C47.431 31.6996 47.5359 31.7237 47.6413 31.7179C47.7467 31.7122 47.8484 31.677 47.9348 31.6162C48.0211 31.5554 48.0885 31.4715 48.1293 31.3742C48.1701 31.2769 48.1827 31.17 48.1657 31.0658L47.6468 27.8869L49.8402 25.6391C49.9127 25.5652 49.9633 25.4726 49.9865 25.3718C50.0097 25.2709 50.0046 25.1655 49.9717 25.0674C49.9388 24.9692 49.8795 24.8821 49.8002 24.8155C49.7209 24.7489 49.6248 24.7056 49.5224 24.6902Z" fill="white"/>
<path d="M32 34.5312C35.5726 34.5312 38.4688 31.6351 38.4688 28.0625C38.4688 24.4899 35.5726 21.5938 32 21.5938C28.4274 21.5938 25.5312 24.4899 25.5312 28.0625C25.5312 31.6351 28.4274 34.5312 32 34.5312Z" fill="white"/>
<path d="M37.3305 33.4645C36.3083 34.4754 35.0198 35.175 33.6152 35.4816L34.774 41.8708C34.905 42.3584 34.684 43.1727 34.2261 43.4967L32.7982 44.7314C32.5692 44.8697 32.2891 44.9389 32.009 44.9389C31.7286 44.9389 31.4485 44.8697 31.2201 44.7308L31.1413 44.6737L29.7942 43.4978C29.3098 43.1603 29.1166 42.341 29.2137 41.8907L30.1609 35.4299C28.8422 35.0992 27.6365 34.4205 26.6698 33.4648C21.8097 34.9984 17.9375 39.2422 17.9375 44.6006V47.6836C17.9375 48.9619 18.9646 50 20.2325 50H43.7675C45.0345 50 46.0625 48.9619 46.0625 47.6836V44.6006C46.0625 39.2419 42.1908 34.9981 37.3305 33.4645Z" fill="white"/>
<path d="M31.2688 35.6202L30.3097 42.1436C30.2999 42.2361 30.3764 42.4957 30.4441 42.5784L30.5052 42.6251L31.8327 43.7838C31.9277 43.8223 32.0909 43.8221 32.1862 43.7832L33.5719 42.5801C33.6344 42.4996 33.7013 42.2563 33.6864 42.1556L33.6723 42.1002L32.4998 35.6382C32.3344 35.6489 32.1679 35.6562 32 35.6562C31.7534 35.6562 31.5095 35.6433 31.2688 35.6202Z" fill="white"/>
</g>
<defs>
<linearGradient id="paint0_linear_115_132" x1="43.975" y1="116.876" x2="96.083" y2="79.6905" gradientUnits="userSpaceOnUse">
<stop stop-color="#002516"/>
<stop offset="1" stop-color="#007443"/>
</linearGradient>
<clipPath id="clip0_115_132">
<rect width="36" height="36" fill="white" transform="translate(14 14)"/>
</clipPath>
</defs>
</svg>
