<svg width="64" height="64" viewBox="0 0 64 64" fill="none" xmlns="http://www.w3.org/2000/svg">
<rect width="64" height="64" rx="12" fill="url(#paint0_linear_115_147)" fill-opacity="0.64"/>
<g clip-path="url(#clip0_115_147)">
<path d="M49.7495 47.8464L48.062 46.7214C48.0006 46.6799 47.9315 46.6509 47.8588 46.6361C47.7861 46.6214 47.7112 46.6212 47.6384 46.6355C47.5656 46.6498 47.4964 46.6783 47.4347 46.7195C47.373 46.7607 47.3201 46.8137 47.2789 46.8754C47.2378 46.9371 47.2092 47.0063 47.195 47.0791C47.1807 47.1519 47.1809 47.2268 47.1957 47.2995C47.2105 47.3722 47.2395 47.4412 47.2811 47.5027C47.3227 47.5641 47.376 47.6167 47.438 47.6574L47.5797 47.7519H42.9687V26.9383C42.9685 26.64 42.8498 26.354 42.6389 26.1431C42.428 25.9322 42.142 25.8136 41.8437 25.8133H39.0312C38.7329 25.8136 38.447 25.9322 38.236 26.1431C38.0251 26.354 37.9065 26.64 37.9062 26.9383V47.7519H36.7812V32.0011C36.781 31.7028 36.6623 31.4168 36.4514 31.2059C36.2405 30.995 35.9545 30.8764 35.6562 30.8761H32.8437C32.5454 30.8764 32.2595 30.995 32.0485 31.2059C31.8376 31.4168 31.719 31.7028 31.7187 32.0011V47.7519H30.5937V37.0639C30.5934 36.7656 30.4748 36.4796 30.2639 36.2687C30.053 36.0578 29.767 35.9392 29.4687 35.9389H26.6562C26.358 35.9392 26.072 36.0578 25.8611 36.2687C25.6502 36.4796 25.5315 36.7656 25.5312 37.0639V47.7519H24.4062V41.8454C24.406 41.5471 24.2874 41.2611 24.0764 41.0502C23.8655 40.8393 23.5795 40.7207 23.2812 40.7204H20.4687C20.1704 40.7207 19.8845 40.8393 19.6735 41.0502C19.4626 41.2611 19.344 41.5471 19.3437 41.8454V47.7519H16.25V16.4205L16.3445 16.5623C16.4283 16.6851 16.5569 16.7702 16.7027 16.7994C16.8485 16.8286 16.9999 16.7994 17.1245 16.7183C17.2486 16.6355 17.3348 16.5069 17.364 16.3606C17.3933 16.2143 17.3633 16.0624 17.2805 15.9383L16.1555 14.2505C16.1041 14.1734 16.0345 14.1103 15.9529 14.0666C15.8713 14.0229 15.7801 14 15.6875 14C15.5949 14 15.5037 14.0229 15.4221 14.0666C15.3404 14.1103 15.2708 14.1734 15.2195 14.2505L14.0945 15.9383C14.0119 16.0624 13.9819 16.2142 14.0112 16.3604C14.0405 16.5066 14.1267 16.6352 14.2507 16.7179C14.3748 16.8006 14.5266 16.8307 14.6728 16.8015C14.819 16.7723 14.9477 16.6863 15.0305 16.5623L15.125 16.4205V48.3144C15.125 48.3883 15.1395 48.4614 15.1678 48.5297C15.196 48.5979 15.2375 48.66 15.2897 48.7122C15.3419 48.7644 15.4039 48.8059 15.4722 48.8341C15.5405 48.8624 15.6136 48.8769 15.6875 48.8769H47.5797L47.438 48.9717C47.3765 49.0127 47.3237 49.0653 47.2826 49.1267C47.2415 49.1881 47.2129 49.257 47.1984 49.3294C47.1839 49.4018 47.1838 49.4764 47.1982 49.5489C47.2125 49.6213 47.241 49.6903 47.282 49.7517C47.3658 49.8745 47.4944 49.9596 47.6402 49.9887C47.786 50.0178 47.9374 49.9886 48.062 49.9074L49.7495 48.7824C49.8265 48.7311 49.8897 48.6615 49.9334 48.5798C49.9771 48.4982 50 48.407 50 48.3144C50 48.2218 49.9771 48.1307 49.9334 48.049C49.8897 47.9674 49.8265 47.8978 49.7495 47.8464Z" fill="white"/>
<path d="M20.4688 39.5948C20.6176 39.5947 20.7604 39.5355 20.8658 39.4304C20.9712 39.3252 21.0307 39.1826 21.0312 39.0337C21.0322 38.8143 21.1172 33.6507 26.5808 33.6496C26.7282 33.6493 26.8695 33.5913 26.9746 33.4881C27.0797 33.3849 27.1402 33.2446 27.1431 33.0973C27.1436 33.0747 27.2074 30.7973 28.7356 29.5635C29.6932 28.7906 31.0511 28.5682 32.7737 28.9032C32.8529 28.9186 32.9345 28.9167 33.0129 28.8978C33.0913 28.8789 33.1647 28.8433 33.2282 28.7936C33.2916 28.7438 33.3436 28.681 33.3807 28.6093C33.4177 28.5377 33.439 28.4589 33.4429 28.3783C33.4442 28.3547 33.5819 25.9976 35.211 24.7523C36.2344 23.9701 37.6574 23.7696 39.4399 24.1582C39.5742 24.1878 39.7146 24.1671 39.8345 24.1C39.9545 24.0329 40.0457 23.9241 40.0907 23.7943C40.0983 23.7721 40.844 21.733 43.5534 21.4226C43.5261 21.5156 43.5234 21.614 43.5455 21.7083C43.5676 21.8026 43.6138 21.8896 43.6796 21.9607C43.7817 22.0689 43.9222 22.1326 44.0709 22.1382C44.2196 22.1437 44.3645 22.0906 44.4744 21.9904L45.6014 20.9445C45.6696 20.8811 45.7211 20.8018 45.7511 20.7137C45.7812 20.6255 45.7889 20.5313 45.7736 20.4395C45.7583 20.3476 45.7204 20.261 45.6633 20.1874C45.6063 20.1138 45.5318 20.0555 45.4467 20.0178L44.0359 19.3924C43.9156 19.3387 43.7803 19.3291 43.6536 19.3652C43.5269 19.4013 43.417 19.4808 43.343 19.5898C43.269 19.6988 43.2357 19.8303 43.2489 19.9614C43.2621 20.0924 43.321 20.2147 43.4152 20.3067C40.8389 20.5998 39.6674 22.1782 39.2368 22.9723C37.3123 22.6374 35.727 22.9368 34.5196 23.8649C33.0405 25.0009 32.5526 26.7675 32.3939 27.7013C30.5988 27.4624 29.1298 27.7955 28.0212 28.6942C26.584 29.8596 26.1778 31.6476 26.0633 32.5383C19.9788 32.8671 19.9062 38.9692 19.9062 39.0326C19.9063 39.1818 19.9656 39.3248 20.0711 39.4302C20.1766 39.5356 20.3196 39.5949 20.4688 39.5948Z" fill="white"/>
</g>
<defs>
<linearGradient id="paint0_linear_115_147" x1="43.975" y1="116.876" x2="96.083" y2="79.6905" gradientUnits="userSpaceOnUse">
<stop stop-color="#002516"/>
<stop offset="1" stop-color="#007443"/>
</linearGradient>
<clipPath id="clip0_115_147">
<rect width="36" height="36" fill="white" transform="translate(14 14)"/>
</clipPath>
</defs>
</svg>
