<svg width="100" height="100" viewBox="0 0 100 100" fill="none" xmlns="http://www.w3.org/2000/svg">
<rect width="100" height="100" rx="12" fill="url(#paint0_radial_81_484)"/>
<rect x="0.5" y="0.5" width="99" height="99" rx="11.5" stroke="url(#paint1_linear_81_484)" stroke-opacity="0.24"/>
<path d="M21.2486 80.9447H25.1307C26.1826 80.9447 27.0382 80.0945 27.0382 79.0497V78.5812H46.9437C46.9703 79.4602 47.6937 80.1682 48.5841 80.1682H51.4162C52.3066 80.1682 53.0298 79.4602 53.0566 78.5812H72.9623V79.0497C72.9623 80.0945 73.8176 80.9447 74.8694 80.9447H78.7516C79.8034 80.9447 80.6593 80.0945 80.6593 79.0497V75.2232C80.6593 74.1783 79.8034 73.3282 78.7516 73.3282H78.5342V26.6719H78.7516C79.8034 26.6719 80.6593 25.8218 80.6593 24.7769V20.9504C80.6593 19.9055 79.8034 19.0554 78.7516 19.0554H74.8694C73.8176 19.0554 72.9623 19.9055 72.9623 20.9504V22.2318H53.0612V21.4678C53.0612 20.5655 52.3231 19.8317 51.4159 19.8317H48.5838C47.6766 19.8317 46.9386 20.5654 46.9386 21.4678V22.2318H27.0381V20.9504C27.0381 19.9055 26.1824 19.0554 25.1306 19.0554H21.2486C20.1967 19.0554 19.3408 19.9055 19.3408 20.9504V24.7769C19.3408 25.8218 20.1967 26.6719 21.2486 26.6719H21.4659V73.3282H21.2486C20.1967 73.3282 19.3408 74.1783 19.3408 75.2232V79.0497C19.3407 80.0945 20.1967 80.9447 21.2486 80.9447ZM51.1858 78.2927H48.8141V75.9798H51.1858V78.2927ZM78.7513 75.2035C78.7751 75.2035 78.7837 75.2192 78.7837 75.223L78.7513 79.0692L74.8374 79.0497L74.8692 75.2035H78.7513ZM74.8692 20.9309H78.7513C78.7751 20.9309 78.7837 20.9465 78.7837 20.9504L78.7513 24.7965L74.8374 24.7769L74.8692 20.9309ZM48.8141 21.7072H51.1858V24.02H48.8141V21.7072ZM27.0381 24.7769V24.1072H46.9387V24.2595C46.9387 25.1615 47.6768 25.8954 48.5839 25.8954H51.4161C52.3233 25.8954 53.0613 25.1617 53.0613 24.2595V24.1072H72.9621V24.7769C72.9621 25.8218 73.8173 26.6719 74.8692 26.6719H76.6586V73.3282H74.8692C73.8173 73.3282 72.9621 74.1783 72.9621 75.2232V76.7058H53.0612V75.7407C53.0612 74.8384 52.3231 74.1045 51.4159 74.1045H48.5838C47.6766 74.1045 46.9386 74.8384 46.9386 75.7407V76.7058H27.0381V75.2232C27.0381 74.1783 26.1824 73.3282 25.1306 73.3282H23.3413V26.6719H25.1307C26.1826 26.6719 27.0381 25.8218 27.0381 24.7769ZM21.2162 24.7769L21.2486 20.9308H25.1307C25.1529 20.9308 25.1627 20.9448 25.1627 20.9503L25.1307 24.7964L21.2162 24.7769ZM21.2486 75.2035H25.1307C25.1529 75.2035 25.1627 75.2175 25.1627 75.223L25.1307 79.0692L21.2162 79.0497L21.2486 75.2035Z" fill="#19A069"/>
<path d="M37.8436 66.8047H54.8709C56.1463 66.8047 57.1834 65.7751 57.1834 64.5096V62.5136L65.5141 58.4215C66.5919 57.8927 67.0185 56.5996 66.4854 55.5448L58.0649 38.8455C57.7988 38.3177 57.3195 37.9187 56.7493 37.7508L49.8876 35.7315C47.9499 34.0013 47.9305 33.7988 47.2946 33.5201V31.3875C47.2946 30.8695 46.8746 30.4497 46.3569 30.4497C45.8391 30.4497 45.4191 30.8695 45.4191 31.3875V33.5202C44.7091 33.8316 45.1604 33.6482 36.2688 41.7802C35.7999 42.2127 35.5306 42.8253 35.5306 43.4612V64.5097C35.5308 65.7751 36.5683 66.8047 37.8436 66.8047ZM56.2194 39.5498C56.2945 39.5718 56.3561 39.6225 56.3898 39.6891C56.3898 39.6891 56.3898 39.6893 56.3904 39.6893L64.8115 56.3896C64.8759 56.5173 64.8229 56.6715 64.6876 56.7382L57.1835 60.4243V43.461C57.1835 42.8251 56.9143 42.2122 56.4454 41.78L53.0005 38.6025L56.2194 39.5498ZM46.3569 43.48C46.8746 43.48 47.2946 43.0602 47.2946 42.5422V41.2237C47.7558 41.5232 48.0614 42.0357 48.0614 42.6182C48.0614 43.5403 47.2976 44.2903 46.3594 44.2903C45.418 44.2903 44.6525 43.5403 44.6525 42.6182C44.6525 42.0365 44.958 41.5245 45.4193 41.2247V42.5422C45.4191 43.0602 45.8393 43.48 46.3569 43.48ZM37.4065 43.461C37.4065 43.3475 37.4554 43.2372 37.5403 43.1585L45.4193 35.8908V39.1987C43.8991 39.6092 42.777 40.9847 42.777 42.6182C42.777 44.5742 44.3839 46.1658 46.3594 46.1658C48.3319 46.1658 49.9369 44.5743 49.9369 42.6182C49.9369 40.9835 48.8144 39.6072 47.2946 39.1978V35.8907L55.1743 43.1585C55.2591 43.237 55.308 43.3471 55.308 43.461V64.5095C55.308 64.7408 55.112 64.9292 54.8709 64.9292H37.8436C37.6025 64.9292 37.4065 64.7408 37.4065 64.5095V43.461Z" fill="#19A069"/>
<defs>
<radialGradient id="paint0_radial_81_484" cx="0" cy="0" r="1" gradientUnits="userSpaceOnUse" gradientTransform="translate(-6.49998 -61) rotate(61.3327) scale(201.158 111.584)">
<stop stop-color="#007443"/>
<stop offset="1" stop-color="#00130B"/>
</radialGradient>
<linearGradient id="paint1_linear_81_484" x1="50" y1="0" x2="50" y2="100" gradientUnits="userSpaceOnUse">
<stop stop-color="#19A069"/>
<stop offset="1" stop-color="#01140C"/>
</linearGradient>
</defs>
</svg>
