<svg width="101" height="100" viewBox="0 0 101 100" fill="none" xmlns="http://www.w3.org/2000/svg">
<rect x="0.5" width="100" height="100" rx="12" fill="url(#paint0_radial_81_404)"/>
<rect x="1" y="0.5" width="99" height="99" rx="11.5" stroke="url(#paint1_linear_81_404)" stroke-opacity="0.24"/>
<path d="M35.523 38.027C36.833 39.657 39.16 40.054 40.937 38.954L41.263 38.752C42.243 38.146 43.54 38.402 44.26 39.4C45.06 40.509 46.316 41.122 47.615 41.122C48.143 41.122 48.679 41.02 49.194 40.809L56.749 37.708C57.244 37.505 57.48 36.939 57.277 36.444C57.074 35.949 56.509 35.714 56.013 35.916L48.458 39.017C47.508 39.406 46.43 39.097 45.785 38.204C44.519 36.448 42.084 35.965 40.241 37.106L39.915 37.308C38.969 37.894 37.73 37.681 37.033 36.815C35.679 35.129 33.225 34.772 31.446 36.001L27.909 38.446C27.469 38.751 27.359 39.354 27.663 39.794C27.967 40.234 28.569 40.343 29.011 40.04L32.548 37.594C33.494 36.94 34.801 37.129 35.522 38.027H35.523ZM53.744 48.758H30.309C29.774 48.758 29.34 49.192 29.34 49.727C29.34 50.262 29.774 50.696 30.309 50.696H53.744C54.279 50.696 54.713 50.262 54.713 49.727C54.713 49.192 54.279 48.758 53.744 48.758ZM30.308 59.329H52.664C53.199 59.329 53.633 58.896 53.633 58.36C53.633 57.824 53.199 57.391 52.664 57.391H30.308C29.773 57.391 29.339 57.824 29.339 58.36C29.339 58.896 29.773 59.329 30.308 59.329ZM53.744 66.017H30.309C29.774 66.017 29.34 66.45 29.34 66.986C29.34 67.522 29.774 67.955 30.309 67.955H53.744C54.279 67.955 54.713 67.522 54.713 66.986C54.713 66.45 54.279 66.017 53.744 66.017Z" fill="#19A069"/>
<path d="M77.684 22.185C76.833 21.778 75.875 21.726 74.986 22.037C74.516 22.202 74.1 22.462 73.748 22.792C73.734 20.699 72.025 19 69.924 19H35.32C33.221 19 31.513 20.712 31.513 22.817V23.292H25.128C23.018 23.292 21.301 25.004 21.301 27.109V77.193C21.301 79.292 23.018 81 25.128 81H59.723C61.827 81 63.54 79.292 63.54 77.193V76.709H69.924C72.034 76.709 73.751 74.997 73.751 72.892V38.607L78.2 29.308L79.359 26.882C79.585 26.391 79.7 25.886 79.7 25.383C79.7 24.019 78.908 22.763 77.685 22.184L77.684 22.185ZM57.471 63.542C57.484 63.545 57.497 63.546 57.51 63.549C57.745 63.604 57.966 63.71 58.158 63.86C58.168 63.868 58.177 63.876 58.186 63.884L57.508 64.384L57.471 63.542ZM60.231 62.375L59.776 62.711C59.764 62.698 59.749 62.689 59.737 62.676C59.641 62.574 59.534 62.487 59.428 62.398C59.366 62.346 59.309 62.287 59.243 62.239C59.111 62.143 58.969 62.065 58.825 61.988C58.727 61.936 58.629 61.89 58.527 61.847C58.383 61.787 58.239 61.727 58.088 61.686C57.993 61.66 57.894 61.65 57.797 61.633C57.679 61.611 57.563 61.586 57.443 61.576C57.423 61.574 57.404 61.568 57.383 61.566L57.358 61L73.152 27.971L74.397 28.566L76.033 29.347L60.231 62.375ZM75.626 23.866C76.026 23.725 76.461 23.749 76.851 23.935C77.403 24.197 77.76 24.766 77.76 25.384C77.76 25.606 77.705 25.838 77.602 26.061L76.867 27.599L74.241 26.345L73.982 26.221L74.72 24.678C74.903 24.295 75.225 24.006 75.626 23.866ZM33.45 22.817C33.45 21.781 34.289 20.938 35.32 20.938H69.923C70.965 20.938 71.812 21.781 71.812 22.817V26.28L71.81 26.284C71.81 26.284 71.81 26.285 71.81 26.286L63.539 43.571V27.109C63.539 25.005 61.827 23.292 59.722 23.292H33.45V22.817ZM61.602 77.193C61.602 78.224 60.759 79.062 59.723 79.062H25.128C24.086 79.062 23.239 78.224 23.239 77.193V27.109C23.239 26.073 24.087 25.23 25.128 25.23H59.723C60.759 25.23 61.602 26.073 61.602 27.109V47.62L56.669 57.942C56.669 57.942 56.669 57.942 56.669 57.944L55.506 60.386C55.438 60.529 55.406 60.686 55.413 60.844L55.491 62.665C55.491 62.665 55.491 62.666 55.491 62.667L55.656 66.28C55.672 66.637 55.884 66.955 56.206 67.11C56.325 67.167 56.453 67.19 56.582 67.195C56.596 67.195 56.61 67.205 56.624 67.205C56.637 67.205 56.65 67.199 56.663 67.199C56.727 67.196 56.79 67.184 56.852 67.169C56.882 67.162 56.911 67.159 56.94 67.149C57.03 67.118 57.117 67.076 57.196 67.017L60.112 64.876C60.112 64.876 60.113 64.875 60.114 64.874C60.115 64.873 60.115 64.874 60.116 64.873L61.579 63.788C61.587 63.782 61.595 63.777 61.603 63.77L61.602 77.193ZM71.813 72.891C71.813 73.928 70.965 74.771 69.924 74.771H63.54V59.955L71.813 42.664V72.891Z" fill="#19A069"/>
<defs>
<radialGradient id="paint0_radial_81_404" cx="0" cy="0" r="1" gradientUnits="userSpaceOnUse" gradientTransform="translate(-5.99998 -61) rotate(61.3327) scale(201.158 111.584)">
<stop stop-color="#007443"/>
<stop offset="1" stop-color="#00130B"/>
</radialGradient>
<linearGradient id="paint1_linear_81_404" x1="50.5" y1="0" x2="50.5" y2="100" gradientUnits="userSpaceOnUse">
<stop stop-color="#19A069"/>
<stop offset="1" stop-color="#01140C"/>
</linearGradient>
</defs>
</svg>
