<svg width="100" height="100" viewBox="0 0 100 100" fill="none" xmlns="http://www.w3.org/2000/svg">
<rect width="100" height="100" rx="12" fill="url(#paint0_radial_81_504)"/>
<rect x="0.5" y="0.5" width="99" height="99" rx="11.5" stroke="url(#paint1_linear_81_504)" stroke-opacity="0.24"/>
<g clip-path="url(#clip0_81_504)">
<path d="M81.0625 65.9375H79.6875V35.625C79.6862 34.7137 79.3236 33.8402 78.6792 33.1958C78.0348 32.5514 77.1613 32.1888 76.25 32.1875H72.8125V30.625C72.8112 29.7137 72.4486 28.8402 71.8042 28.1958C71.1598 27.5514 70.2863 27.1888 69.375 27.1875H30.625C29.7137 27.1888 28.8402 27.5514 28.1958 28.1958C27.5514 28.8402 27.1888 29.7137 27.1875 30.625V32.1875H23.75C22.8387 32.1888 21.9652 32.5514 21.3208 33.1958C20.6764 33.8402 20.3138 34.7137 20.3125 35.625V65.9375H18.9375C18.6889 65.9375 18.4504 66.0363 18.2746 66.2121C18.0988 66.3879 18 66.6264 18 66.875V69.375C18.0013 70.2863 18.3639 71.1598 19.0083 71.8042C19.6527 72.4486 20.5262 72.8112 21.4375 72.8125H78.5625C79.4738 72.8112 80.3473 72.4486 80.9917 71.8042C81.6361 71.1598 81.9987 70.2863 82 69.375V66.875C82 66.6264 81.9012 66.3879 81.7254 66.2121C81.5496 66.0363 81.3111 65.9375 81.0625 65.9375ZM29.0625 30.625C29.0632 30.2108 29.228 29.8138 29.5209 29.5209C29.8138 29.228 30.2108 29.0632 30.625 29.0625H69.375C69.7892 29.0632 70.1862 29.228 70.4791 29.5209C70.772 29.8138 70.9368 30.2108 70.9375 30.625V53.125C70.9368 53.5392 70.772 53.9362 70.4791 54.2291C70.1862 54.522 69.7892 54.6868 69.375 54.6875H58.75C58.5261 54.6875 58.3097 54.7677 58.14 54.9137L50 61.89L43.7838 56.5625H50C50.2486 56.5625 50.4871 56.4637 50.6629 56.2879C50.8387 56.1121 50.9375 55.8736 50.9375 55.625C50.9375 55.3764 50.8387 55.1379 50.6629 54.9621C50.4871 54.7863 50.2486 54.6875 50 54.6875H30.625C30.2108 54.6868 29.8138 54.522 29.5209 54.2291C29.228 53.9362 29.0632 53.5392 29.0625 53.125V30.625ZM22.1875 35.625C22.1882 35.2108 22.353 34.8138 22.6459 34.5209C22.9388 34.228 23.3358 34.0632 23.75 34.0625H27.1875V53.125C27.1888 54.0363 27.5514 54.9098 28.1958 55.5542C28.8402 56.1986 29.7137 56.5612 30.625 56.5625H40.9037L49.39 63.8363C49.5597 63.9823 49.7761 64.0626 50 64.0626C50.2239 64.0626 50.4403 63.9823 50.61 63.8363L59.0962 56.5625H69.375C70.2863 56.5612 71.1598 56.1986 71.8042 55.5542C72.4486 54.9098 72.8112 54.0363 72.8125 53.125V34.0625H76.25C76.6642 34.0632 77.0612 34.228 77.3541 34.5209C77.647 34.8138 77.8118 35.2108 77.8125 35.625V65.9375H22.1875V35.625ZM80.125 69.375C80.1243 69.7892 79.9595 70.1862 79.6666 70.4791C79.3737 70.772 78.9767 70.9368 78.5625 70.9375H21.4375C21.0233 70.9368 20.6263 70.772 20.3334 70.4791C20.0405 70.1862 19.8757 69.7892 19.875 69.375V67.8125H80.125V69.375Z" fill="#19A069"/>
<path d="M40.3237 48.1625C40.3755 48.2742 40.4489 48.3746 40.5397 48.4578C40.6304 48.5411 40.7367 48.6055 40.8525 48.6475C40.9682 48.6903 41.0912 48.7095 41.2144 48.7042C41.3376 48.6988 41.4585 48.6689 41.57 48.6163L42.9825 47.9575L43.9062 49.9375C44.061 50.2729 44.2808 50.5741 44.5529 50.8239C44.825 51.0736 45.1439 51.2669 45.4912 51.3925C45.838 51.5199 46.2066 51.5772 46.5756 51.5611C46.9447 51.545 47.3069 51.4558 47.6412 51.2988L49.9037 50.2425C50.5798 49.926 51.1027 49.3541 51.3576 48.6525C51.6126 47.9509 51.5788 47.1768 51.2637 46.5L51.1087 46.1688L56.4075 45.7563C56.5586 45.7448 56.7046 45.6969 56.8331 45.6166C56.9616 45.5363 57.0686 45.426 57.1451 45.2952C57.2215 45.1644 57.2651 45.017 57.2721 44.8657C57.279 44.7143 57.2491 44.5635 57.185 44.4263L51.9087 33.1C51.8447 32.9627 51.7483 32.8429 51.6278 32.7509C51.5074 32.659 51.3664 32.5975 51.2171 32.5718C51.0677 32.5462 50.9144 32.557 50.7701 32.6035C50.6259 32.65 50.495 32.7307 50.3887 32.8388L43.0387 40.3388L38.6637 42.3788C38.5517 42.4309 38.4511 42.5046 38.3677 42.5957C38.2842 42.6868 38.2195 42.7935 38.1774 42.9096C38.1352 43.0257 38.1164 43.149 38.122 43.2724C38.1276 43.3959 38.1575 43.5169 38.21 43.6288L40.3237 48.1625ZM50.78 35.125L54.9137 44L46.275 44.6713L44.7125 41.3188L50.78 35.125ZM45.9412 46.5775L49.1125 46.3275L49.5637 47.2963C49.6163 47.408 49.6462 47.5291 49.6519 47.6524C49.6576 47.7758 49.6389 47.8991 49.5969 48.0152C49.5548 48.1313 49.4903 48.238 49.407 48.3291C49.3236 48.4202 49.2231 48.494 49.1112 48.5463L46.8475 49.6038C46.6225 49.7078 46.3654 49.7184 46.1326 49.6334C45.8997 49.5484 45.71 49.3746 45.605 49.15L44.6812 47.1675L45.9412 46.5775ZM43.135 42.375L44.4537 45.2063L41.625 46.52L40.3062 43.69L43.135 42.375ZM57.825 41.375C57.877 41.4872 57.9506 41.5879 58.0417 41.6714C58.1328 41.7549 58.2395 41.8196 58.3557 41.8616C58.4719 41.9037 58.5953 41.9224 58.7188 41.9165C58.8422 41.9106 58.9633 41.8804 59.075 41.8275L61.3375 40.7713C61.4519 40.7211 61.555 40.6485 61.641 40.5578C61.7269 40.4672 61.7938 40.3603 61.8379 40.2434C61.8819 40.1265 61.9021 40.002 61.8974 39.8772C61.8926 39.7523 61.863 39.6297 61.8102 39.5165C61.7573 39.4033 61.6824 39.3018 61.5899 39.218C61.4973 39.1342 61.3889 39.0697 61.271 39.0283C61.1531 38.9869 61.0282 38.9695 60.9035 38.9771C60.7789 38.9847 60.657 39.0172 60.545 39.0725L58.2775 40.125C58.1656 40.1773 58.0651 40.2511 57.9818 40.3422C57.8984 40.4333 57.8339 40.54 57.7919 40.6561C57.7498 40.7723 57.7311 40.8955 57.7368 41.0189C57.7425 41.1422 57.7725 41.2633 57.825 41.375ZM56.2425 37.9763C56.3179 38.1381 56.438 38.2749 56.5886 38.3708C56.7392 38.4667 56.914 38.5176 57.0925 38.5175C57.2291 38.5174 57.364 38.4871 57.4875 38.4288L59.75 37.375C59.8615 37.3229 59.9617 37.2493 60.0448 37.1585C60.1279 37.0677 60.1923 36.9613 60.2343 36.8456C60.2764 36.7299 60.2952 36.607 60.2897 36.484C60.2842 36.361 60.2546 36.2403 60.2025 36.1288C60.1504 36.0172 60.0768 35.9171 59.986 35.834C59.8951 35.7508 59.7888 35.6864 59.6731 35.6444C59.4394 35.5596 59.1815 35.571 58.9562 35.6763L56.6937 36.7325C56.4691 36.8378 56.2954 37.0279 56.2108 37.261C56.1262 37.4942 56.1376 37.7515 56.2425 37.9763ZM55.5087 35.125C55.6456 35.1252 55.7809 35.0954 55.905 35.0375L58.1675 33.9813C58.2795 33.9292 58.3802 33.8557 58.4638 33.7647C58.5474 33.6738 58.6123 33.5672 58.6547 33.4512C58.6971 33.3352 58.7163 33.212 58.7111 33.0885C58.7059 32.9651 58.6764 32.8439 58.6244 32.7319C58.5723 32.6199 58.4987 32.5192 58.4078 32.4356C58.3168 32.352 58.2103 32.2871 58.0943 32.2447C57.9783 32.2023 57.855 32.1831 57.7316 32.1883C57.6082 32.1935 57.487 32.223 57.375 32.275L55.1125 33.3313C54.9189 33.4214 54.7619 33.5748 54.6673 33.7663C54.5728 33.9577 54.5465 34.1757 54.5927 34.3842C54.6389 34.5926 54.7549 34.7791 54.9215 34.9127C55.088 35.0462 55.2952 35.119 55.5087 35.1188V35.125Z" fill="#19A069"/>
</g>
<defs>
<radialGradient id="paint0_radial_81_504" cx="0" cy="0" r="1" gradientUnits="userSpaceOnUse" gradientTransform="translate(-6.49998 -61) rotate(61.3327) scale(201.158 111.584)">
<stop stop-color="#007443"/>
<stop offset="1" stop-color="#00130B"/>
</radialGradient>
<linearGradient id="paint1_linear_81_504" x1="50" y1="0" x2="50" y2="100" gradientUnits="userSpaceOnUse">
<stop stop-color="#19A069"/>
<stop offset="1" stop-color="#01140C"/>
</linearGradient>
<clipPath id="clip0_81_504">
<rect width="64" height="64" fill="white" transform="translate(18 18)"/>
</clipPath>
</defs>
</svg>
