<svg width="101" height="100" viewBox="0 0 101 100" fill="none" xmlns="http://www.w3.org/2000/svg">
<rect x="0.5" width="100" height="100" rx="12" fill="url(#paint0_radial_81_524)"/>
<rect x="1" y="0.5" width="99" height="99" rx="11.5" stroke="url(#paint1_linear_81_524)" stroke-opacity="0.24"/>
<path d="M59.3146 36.5601L61.4673 45.5395C61.5837 45.9758 61.9812 46.2861 62.4273 46.2861H64.5509C65.6176 46.2861 66.3255 45.1807 65.8794 44.2207C64.6673 41.6316 64.2891 39.7116 64.58 36.5698" stroke="#19A069" stroke-width="1.5" stroke-miterlimit="10" stroke-linecap="round" stroke-linejoin="round"/>
<path d="M65.7049 36.5699H59.4406C57.7049 36.5699 56.2988 35.1638 56.2988 33.4281V30.3056C56.2988 28.5699 57.7049 27.1638 59.4406 27.1638H65.7049V36.5699Z" stroke="#19A069" stroke-width="1.5" stroke-miterlimit="10" stroke-linecap="round" stroke-linejoin="round"/>
<path d="M77.1765 41.3212L65.705 36.5697V27.1636L77.1765 22.4121V41.3212Z" stroke="#19A069" stroke-width="1.5" stroke-miterlimit="10" stroke-linecap="round" stroke-linejoin="round"/>
<path d="M77.1764 28.2305C79.1837 28.2305 80.8031 29.8596 80.8031 31.8571C80.8031 33.8644 79.174 35.4838 77.1764 35.4838V28.2305Z" stroke="#19A069" stroke-width="1.5" stroke-miterlimit="10" stroke-linecap="round" stroke-linejoin="round"/>
<path d="M26.7231 59.5129C24.0274 52.5505 26.7425 46.645 27.2565 45.6268M53.4286 45.5396C53.4383 45.5396 53.4383 45.5396 53.4286 45.5396ZM53.4286 45.5396C53.8068 46.2377 56.7644 52.2402 54.0686 59.3771" stroke="#19A069" stroke-width="1.5" stroke-miterlimit="10" stroke-linecap="round" stroke-linejoin="round"/>
<path d="M46.0879 26.5043C46.7764 25.8643 47.1837 25.0789 47.1837 24.2449C47.1837 21.9274 44.1001 20.0461 40.2794 20.0461C36.4685 20.0461 33.3849 21.9274 33.3849 24.2449C33.3849 25.1371 33.8407 25.971 34.6261 26.6498M46.0879 54.3734C46.1752 56.0995 47.3194 57.5928 48.9485 58.1358C49.0649 58.1746 49.1813 58.2037 49.2976 58.2328L54.0685 59.3771L54.6504 59.5128C58.4807 60.434 61.1764 63.8474 61.1764 67.7746V69.0158C61.1764 75.0571 56.2698 79.954 50.2285 79.954H40.6867H31.1449C25.1037 79.954 20.197 75.0571 20.197 69.0158V67.7746C20.197 63.8474 22.9025 60.434 26.7231 59.5128L32.0758 58.2328C32.6673 58.0971 33.2007 57.8352 33.6564 57.4861C34.471 56.8558 35.0431 55.9443 35.2273 54.9164" stroke="#19A069" stroke-width="1.5" stroke-miterlimit="10" stroke-linecap="round" stroke-linejoin="round"/>
<path d="M23.8819 64.9431C23.4843 65.6122 23.2322 66.3589 23.1449 67.1346C23.0771 67.9104 23.0965 68.6861 23.1255 69.4522C23.1934 71.0037 23.7558 72.5164 24.6771 73.7577M28.1292 76.4437C28.6916 76.6764 29.2831 76.8316 29.8746 76.9383" stroke="#19A069" stroke-width="1.5" stroke-miterlimit="10" stroke-linecap="round" stroke-linejoin="round"/>
<path d="M46.0879 54.3735C46.1752 56.0996 47.3194 57.5929 48.9485 58.136C49.0649 58.1844 49.191 58.2135 49.3073 58.2426C49.3073 58.2426 49.2007 58.7081 48.997 59.5129C48.6673 60.822 48.0661 63.0329 47.2225 65.6317C46.951 66.4851 46.6504 67.3772 46.3207 68.2887C45.7776 69.8111 45.1667 71.4014 44.4782 72.9626C44.2067 73.5929 43.9255 74.2135 43.6249 74.8244C43.4794 75.1347 43.334 75.4354 43.1788 75.736C42.4128 77.2487 41.5788 78.6741 40.6867 79.9541C38.2819 76.5117 36.3328 71.9347 34.9073 67.862C34.8007 67.5711 34.7037 67.2899 34.6067 66.999C34.4613 66.5626 34.3158 66.1457 34.1897 65.7384C34.18 65.7093 34.1704 65.6802 34.1607 65.6414L34.151 65.6317C33.3073 63.0329 32.7158 60.822 32.3861 59.5129C32.1825 58.7081 32.0758 58.2426 32.0758 58.2426C32.6673 58.1069 33.2007 57.8354 33.6564 57.4863C34.471 56.856 35.0431 55.9444 35.2273 54.9166" stroke="#19A069" stroke-width="1.5" stroke-miterlimit="10" stroke-linecap="round" stroke-linejoin="round"/>
<path d="M27.334 38.4414C25.5498 38.965 24.2698 40.3808 24.2698 42.0487C24.2698 43.6875 25.511 45.0838 27.2564 45.6269C27.7122 45.7723 28.197 45.8596 28.7013 45.879M53.2346 38.4899C55.0286 39.0426 56.2989 40.4293 56.2989 42.0487C56.2989 43.6002 55.1255 44.9384 53.4383 45.5396C53.4383 45.5396 53.4383 45.5396 53.4286 45.5396C52.9534 45.7141 52.4298 45.8208 51.877 45.8596H51.8674M34.151 65.6317C35.6152 70.1699 37.8358 75.8717 40.6867 79.9541C43.5474 75.8717 45.7583 70.1699 47.2225 65.6317C42.8686 70.5869 38.5049 70.5869 34.151 65.6317Z" stroke="#19A069" stroke-width="1.5" stroke-miterlimit="10" stroke-linecap="round" stroke-linejoin="round"/>
<path d="M27.334 39.1588V37.3454C27.2758 22.0824 53.2346 20.9769 53.2346 37.3454V39.2072" stroke="#19A069" stroke-width="1.5" stroke-miterlimit="10" stroke-linecap="round" stroke-linejoin="round"/>
<path d="M38.1364 32.3418C37.7679 32.9527 37.38 33.5636 36.9825 34.1551M27.334 39.1976C29.5643 39.6436 32.5316 38.8194 34.1897 37.4424C35.2467 36.56 36.1097 35.4933 36.8758 34.3394C41.2103 37.7042 47.7849 39.983 53.2346 39.246V39.4691C52.7206 47.7309 47.1255 56.5842 40.2891 56.5842C33.4528 56.5842 27.8479 47.7309 27.3437 39.4691L27.334 39.1976Z" stroke="#19A069" stroke-width="1.5" stroke-miterlimit="10" stroke-linecap="round" stroke-linejoin="round"/>
<path d="M75.0625 48.5747L73.0358 52.2789L69.3315 54.3153L73.0358 56.342L75.0625 60.0462L77.0988 56.342L80.8031 54.3153L77.0988 52.2789L75.0625 48.5747Z" stroke="#19A069" stroke-width="1.5" stroke-miterlimit="10" stroke-linecap="round" stroke-linejoin="round"/>
<path d="M71.4359 61.4812L68.808 66.2909L63.9983 68.9188L68.808 71.5564L71.4359 76.366L74.0734 71.5564L78.8831 68.9188L74.0734 66.2909L71.4359 61.4812Z" stroke="#19A069" stroke-width="1.5" stroke-miterlimit="10" stroke-linecap="round" stroke-linejoin="round"/>
<defs>
<radialGradient id="paint0_radial_81_524" cx="0" cy="0" r="1" gradientUnits="userSpaceOnUse" gradientTransform="translate(-5.99998 -61) rotate(61.3327) scale(201.158 111.584)">
<stop stop-color="#007443"/>
<stop offset="1" stop-color="#00130B"/>
</radialGradient>
<linearGradient id="paint1_linear_81_524" x1="50.5" y1="0" x2="50.5" y2="100" gradientUnits="userSpaceOnUse">
<stop stop-color="#19A069"/>
<stop offset="1" stop-color="#01140C"/>
</linearGradient>
</defs>
</svg>
