<svg width="100" height="100" viewBox="0 0 100 100" fill="none" xmlns="http://www.w3.org/2000/svg">
<rect width="100" height="100" rx="12" fill="url(#paint0_radial_81_446)"/>
<rect x="0.5" y="0.5" width="99" height="99" rx="11.5" stroke="url(#paint1_linear_81_446)" stroke-opacity="0.24"/>
<path d="M39.92 57.62C39.97 57.74 40 57.87 40 58V62C40 62.55 39.55 63 39 63C38.45 63 38 62.55 38 62V60.41L33.21 65.2C32.82 65.59 32.19 65.59 31.8 65.2L29.51 62.91L25.72 66.7C25.52 66.9 25.27 66.99 25.01 66.99C24.75 66.99 24.5 66.89 24.3 66.7C23.91 66.31 23.91 65.68 24.3 65.29L28.8 60.79C29.19 60.4 29.82 60.4 30.21 60.79L32.5 63.08L36.59 58.99H35C34.45 58.99 34 58.54 34 57.99C34 57.44 34.45 56.99 35 56.99H39C39.13 56.99 39.26 57.02 39.38 57.07C39.62 57.17 39.82 57.37 39.92 57.61V57.62ZM40 73C40 74.65 38.65 76 37 76H27C25.35 76 24 74.65 24 73C24 71.35 25.35 70 27 70H37C38.65 70 40 71.35 40 73ZM38 73C38 72.45 37.55 72 37 72H27C26.45 72 26 72.45 26 73C26 73.55 26.45 74 27 74H37C37.55 74 38 73.55 38 73ZM80.9 29.44C79.71 31.9 78.02 33.96 76 35.54V71C76 72.65 74.65 74 73 74H45V78C45 79.65 43.65 81 42 81H22C20.35 81 19 79.65 19 78V54C19 52.35 20.35 51 22 51H24V31C24 29.35 25.35 28 27 28H51.4C54.34 22.44 59.87 19 66 19C72.13 19 78.05 22.67 80.9 28.56C81.03 28.84 81.03 29.16 80.9 29.43V29.44ZM43 69.83C43 69.56 43.11 69.31 43.29 69.12L45.41 67L43.29 64.88C43.1 64.69 43 64.44 43 64.17V54C43 53.45 42.55 53 42 53H22C21.45 53 21 53.45 21 54V78C21 78.55 21.45 79 22 79H42C42.55 79 43 78.55 43 78V69.83ZM74 36.88C71.6 38.24 68.87 39 66 39C59.87 39 54.33 35.56 51.4 30H27C26.45 30 26 30.45 26 31V51H42C43.65 51 45 52.35 45 54V63.76L47.54 66.3C47.73 66.49 47.83 66.74 47.83 67.01C47.83 67.28 47.72 67.53 47.54 67.72L45 70.26V72.02H73C73.55 72.02 74 71.57 74 71.02V36.88ZM78.88 29C76.3 24.05 71.41 21 66 21C60.59 21 55.7 24.05 53.12 29C55.7 33.95 60.59 37 66 37C69.03 37 71.9 36.04 74.29 34.33C74.3 34.32 74.32 34.31 74.34 34.29C76.19 32.95 77.76 31.15 78.88 29ZM72.31 25.97C72.77 26.91 73 27.93 73 29C73 32.86 69.86 36 66 36C62.14 36 59 32.86 59 29C59 25.14 62.14 22 66 22C67.07 22 68.09 22.23 69.03 22.69C69.32 22.83 69.53 23.11 69.58 23.43C69.63 23.75 69.52 24.08 69.29 24.31C69.1 24.49 69 24.74 69 25C69 25.55 69.45 26 70 26C70.27 26 70.51 25.9 70.69 25.71C70.92 25.48 71.25 25.37 71.57 25.42C71.89 25.47 72.17 25.68 72.31 25.97ZM71 29C71 28.61 70.96 28.24 70.87 27.87C70.59 27.95 70.3 28 70 28C68.35 28 67 26.65 67 25C67 24.7 67.04 24.41 67.13 24.13C66.77 24.05 66.39 24 66 24C63.24 24 61 26.24 61 29C61 31.76 63.24 34 66 34C68.76 34 71 31.76 71 29ZM59 56V66C59 66.55 58.55 67 58 67H52C51.45 67 51 66.55 51 66V56C51 55.45 51.45 55 52 55H58C58.55 55 59 55.45 59 56ZM57 57H53V65H57V57ZM63 48H69C69.55 48 70 48.45 70 49V66C70 66.55 69.55 67 69 67H63C62.45 67 62 66.55 62 66V49C62 48.45 62.45 48 63 48ZM64 65H68V50H64V65ZM46 35H32C31.45 35 31 35.45 31 36C31 36.55 31.45 37 32 37H46C46.55 37 47 36.55 47 36C47 35.45 46.55 35 46 35ZM46 40H32C31.45 40 31 40.45 31 41C31 41.55 31.45 42 32 42H46C46.55 42 47 41.55 47 41C47 40.45 46.55 40 46 40ZM39 45H32C31.45 45 31 45.45 31 46C31 46.55 31.45 47 32 47H39C39.55 47 40 46.55 40 46C40 45.45 39.55 45 39 45Z" fill="#19A069"/>
<defs>
<radialGradient id="paint0_radial_81_446" cx="0" cy="0" r="1" gradientUnits="userSpaceOnUse" gradientTransform="translate(-6.49998 -61) rotate(61.3327) scale(201.158 111.584)">
<stop stop-color="#007443"/>
<stop offset="1" stop-color="#00130B"/>
</radialGradient>
<linearGradient id="paint1_linear_81_446" x1="50" y1="0" x2="50" y2="100" gradientUnits="userSpaceOnUse">
<stop stop-color="#19A069"/>
<stop offset="1" stop-color="#01140C"/>
</linearGradient>
</defs>
</svg>
