<svg width="101" height="100" viewBox="0 0 101 100" fill="none" xmlns="http://www.w3.org/2000/svg">
<rect x="0.5" width="100" height="100" rx="12" fill="url(#paint0_radial_81_465)"/>
<rect x="1" y="0.5" width="99" height="99" rx="11.5" stroke="url(#paint1_linear_81_465)" stroke-opacity="0.24"/>
<g clip-path="url(#clip0_81_465)">
<path d="M63.1269 46.9137C61.7854 47.6883 60.7036 48.8432 60.0185 50.2325C59.3334 51.6218 59.0756 53.183 59.2778 54.7188C59.4799 56.2546 60.133 57.696 61.1543 58.8606C62.1757 60.0253 63.5194 60.8609 65.0157 61.2618C66.512 61.6628 68.0935 61.611 69.5604 61.1131C71.0272 60.6152 72.3135 59.6935 73.2565 58.4646C74.1995 57.2356 74.7569 55.7547 74.8582 54.2089C74.9596 52.6632 74.6003 51.1221 73.8257 49.7806C72.7855 47.9835 71.0748 46.6725 69.0691 46.135C67.0634 45.5976 64.9265 45.8777 63.127 46.9139L63.1269 46.9137ZM72.2019 50.7181C72.855 51.8525 73.1158 53.1706 72.9439 54.4683C72.772 55.7659 72.177 56.9706 71.251 57.8958C70.3251 58.821 69.1199 59.4151 67.8221 59.586C66.5243 59.7568 65.2064 59.495 64.0726 58.8409C62.9387 58.1869 62.0521 57.1773 61.5502 55.9683C61.0483 54.7594 60.959 53.4187 61.2963 52.154C61.6335 50.8892 62.3784 49.7709 63.4156 48.9723C64.4527 48.1738 65.7243 47.7396 67.0332 47.7369C67.5572 47.7373 68.0788 47.8064 68.5848 47.9425C69.3413 48.143 70.0505 48.4915 70.6714 48.968C71.2923 49.4444 71.8126 50.0393 72.202 50.7181H72.2019ZM24.1265 26.0743C23.9403 26.0732 23.758 26.1275 23.6027 26.2302C23.4474 26.3328 23.3261 26.4793 23.2541 26.651C23.1821 26.8227 23.1627 27.012 23.1984 27.1947C23.2341 27.3774 23.3232 27.5455 23.4545 27.6775C23.5858 27.8095 23.7533 27.8996 23.9359 27.9363C24.1184 27.973 24.3077 27.9547 24.4798 27.8837C24.652 27.8127 24.7991 27.6922 24.9027 27.5374C25.0062 27.3827 25.0615 27.2007 25.0615 27.0145C25.0618 26.8914 25.0379 26.7694 24.9911 26.6555C24.9443 26.5416 24.8756 26.438 24.7887 26.3507C24.7019 26.2634 24.5987 26.1941 24.4851 26.1466C24.3715 26.0992 24.2496 26.0746 24.1265 26.0743ZM27.8663 26.0743C27.6801 26.0732 27.4978 26.1275 27.3425 26.2302C27.1871 26.3328 27.0658 26.4793 26.9938 26.651C26.9219 26.8227 26.9025 27.012 26.9382 27.1947C26.9739 27.3774 27.063 27.5455 27.1943 27.6775C27.3256 27.8095 27.4931 27.8996 27.6756 27.9363C27.8582 27.973 28.0475 27.9547 28.2196 27.8837C28.3917 27.8127 28.5389 27.6922 28.6424 27.5374C28.746 27.3827 28.8012 27.2007 28.8013 27.0145C28.8016 26.8914 28.7777 26.7694 28.7309 26.6555C28.6841 26.5416 28.6153 26.438 28.5285 26.3507C28.4417 26.2634 28.3385 26.1941 28.2249 26.1466C28.1112 26.0992 27.9894 26.0746 27.8663 26.0743ZM50.7113 48.4429C51.4658 48.4429 52.1894 48.1431 52.7229 47.6096C53.2564 47.0761 53.5561 46.3525 53.5561 45.598C53.5561 44.8435 53.2564 44.1199 52.7229 43.5864C52.1894 43.0529 51.4658 42.7531 50.7113 42.7531H43.823C43.0687 42.754 42.3456 43.054 41.8122 43.5873C41.2789 44.1207 40.9789 44.8438 40.9781 45.5981V61.946C40.979 62.7003 41.2789 63.4234 41.8123 63.9567C42.3456 64.4901 43.0687 64.79 43.823 64.7909H50.7114C51.4659 64.7909 52.1895 64.4911 52.723 63.9576C53.2565 63.4241 53.5563 62.7005 53.5563 61.946C53.5563 61.1915 53.2565 60.4679 52.723 59.9344C52.1895 59.4009 51.4659 59.1011 50.7114 59.1011H46.6679V56.6169H50.2034C50.9579 56.6169 51.6815 56.3171 52.215 55.7836C52.7485 55.2501 53.0482 54.5265 53.0482 53.772C53.0482 53.0175 52.7485 52.2939 52.215 51.7604C51.6815 51.2269 50.9579 50.9271 50.2034 50.9271H46.6679V48.4429H50.7113ZM45.7304 52.802H50.2034C50.4606 52.802 50.7073 52.9042 50.8892 53.0861C51.0711 53.268 51.1733 53.5147 51.1733 53.7719C51.1733 54.0292 51.0711 54.2759 50.8892 54.4578C50.7073 54.6397 50.4606 54.7419 50.2034 54.7419H45.7304C45.4817 54.7419 45.2433 54.8406 45.0675 55.0165C44.8916 55.1923 44.7929 55.4307 44.7929 55.6794V60.0386C44.7929 60.2873 44.8916 60.5257 45.0675 60.7015C45.2433 60.8774 45.4817 60.9761 45.7304 60.9761H50.7114C50.9686 60.9761 51.2153 61.0783 51.3972 61.2602C51.5791 61.4421 51.6813 61.6888 51.6813 61.946C51.6813 62.2032 51.5791 62.4499 51.3972 62.6318C51.2153 62.8137 50.9686 62.9159 50.7114 62.9159H43.823C43.5658 62.9156 43.3193 62.8133 43.1374 62.6315C42.9556 62.4496 42.8534 62.203 42.8531 61.9459V45.5981C42.8534 45.341 42.9557 45.0944 43.1375 44.9126C43.3193 44.7308 43.5659 44.6285 43.823 44.6283H50.7114C50.9686 44.6283 51.2153 44.7304 51.3972 44.9123C51.5791 45.0942 51.6813 45.3409 51.6813 45.5981C51.6813 45.8554 51.5791 46.102 51.3972 46.2839C51.2153 46.4658 50.9686 46.568 50.7114 46.568H45.7304C45.4817 46.568 45.2433 46.6668 45.0675 46.8426C44.8916 47.0184 44.7929 47.2569 44.7929 47.5055V51.8646C44.7929 52.1133 44.8916 52.3517 45.0675 52.5275C45.2433 52.7034 45.4817 52.8021 45.7304 52.8021V52.802ZM81.9219 70.845L78.8139 65.4618C78.5995 65.0882 78.3132 64.7608 77.9716 64.4987C77.6299 64.2365 77.2396 64.0447 76.8232 63.9344C76.612 63.8777 76.3957 63.8421 76.1775 63.8281L74.9787 61.7537C75.983 60.765 76.7923 59.5961 77.3643 58.3081C78.303 56.2097 78.5796 53.875 78.1572 51.6153C77.7348 49.3556 76.6334 47.2785 75 45.6609V27.0562C74.9987 25.898 74.538 24.7876 73.719 23.9685C72.8999 23.1495 71.7895 22.6888 70.6312 22.6875H22.8688C21.7105 22.6888 20.6001 23.1495 19.781 23.9685C18.962 24.7876 18.5013 25.898 18.5 27.0562V72.9437C18.5013 74.102 18.962 75.2124 19.781 76.0315C20.6001 76.8505 21.7105 77.3112 22.8688 77.3125H70.6312C71.4021 77.3119 72.159 77.1074 72.8254 76.7199C73.4917 76.3323 74.0436 75.7754 74.4253 75.1056L74.4545 75.1562C75.0262 76.1465 75.9679 76.8691 77.0723 77.165C78.1768 77.4609 79.3536 77.306 80.3438 76.7343C81.334 76.1626 82.0566 75.2209 82.3526 74.1165C82.6485 73.012 82.4936 71.8352 81.9219 70.845ZM75.2125 48.98C75.9543 50.2725 76.3806 51.7218 76.4568 53.2101C76.5331 54.6984 76.2571 56.1837 75.6514 57.5452C74.9589 59.093 73.8619 60.4253 72.4759 61.4021C71.09 62.3789 69.4663 62.964 67.7759 63.0957C66.0854 63.2275 64.3907 62.901 62.8701 62.1508C61.3496 61.4005 60.0594 60.2542 59.1355 58.8324C58.2115 57.4107 57.688 55.7662 57.6199 54.072C57.5519 52.3778 57.9418 50.6965 58.7488 49.2053C59.5557 47.714 60.7498 46.4679 62.2053 45.5981C63.6607 44.7283 65.3238 44.267 67.0194 44.2628C67.8514 44.2634 68.6798 44.3732 69.4832 44.5894C70.6811 44.906 71.8042 45.4571 72.7877 46.2108C73.7711 46.9644 74.5953 47.9057 75.2125 48.98ZM74.2809 64.2935L72.6009 65.2635L71.8359 63.9384C72.1292 63.8011 72.4165 63.6515 72.6971 63.49C72.9771 63.3279 73.2502 63.154 73.5155 62.9689L74.2809 64.2935ZM70.6312 24.5625C71.2924 24.5633 71.9263 24.8262 72.3938 25.2937C72.8613 25.7612 73.1242 26.3951 73.125 27.0562V29.4653H59.244C58.7808 29.4652 58.3249 29.3498 57.9174 29.1294C57.51 28.9091 57.1638 28.5908 56.9101 28.2032L54.6629 24.7929C54.6109 24.7141 54.5566 24.6374 54.5006 24.5625H70.6312ZM20.375 27.0562C20.3758 26.3951 20.6387 25.7612 21.1062 25.2937C21.5737 24.8262 22.2076 24.5633 22.8688 24.5625H42.271C42.1174 24.7668 41.9807 24.9832 41.862 25.2095L40.4342 27.9525C40.1994 28.4081 39.8436 28.7903 39.406 29.0571C38.9683 29.3239 38.4656 29.4651 37.953 29.4651H20.375V27.0562ZM73.125 72.9437C73.1242 73.6049 72.8613 74.2388 72.3938 74.7063C71.9263 75.1738 71.2924 75.4367 70.6312 75.4375H22.8688C22.2076 75.4367 21.5737 75.1738 21.1062 74.7063C20.6387 74.2388 20.3758 73.6049 20.375 72.9437V31.3401H37.953C38.8088 31.3407 39.6482 31.1057 40.3792 30.6609C41.1102 30.216 41.7047 29.5785 42.0974 28.8181L43.5252 26.075C43.7601 25.6194 44.1159 25.2372 44.5535 24.9704C44.9912 24.7036 45.4939 24.5624 46.0065 24.5624H50.7632C51.2265 24.5625 51.6824 24.6779 52.0898 24.8982C52.4973 25.1185 52.8434 25.4368 53.0971 25.8244L55.3444 29.2347C55.7685 29.8818 56.3471 30.4131 57.0279 30.7807C57.7087 31.1482 58.4703 31.3405 59.244 31.3401H73.125V44.1629C72.1494 43.5435 71.085 43.0765 69.9686 42.7781C67.0729 42.0022 63.9875 42.4084 61.3913 43.9073C58.795 45.4062 56.9006 47.8751 56.1246 50.7709C55.3487 53.6666 55.7549 56.752 57.2538 59.3482C58.7527 61.9445 61.2216 63.839 64.1174 64.6149C65.0801 64.8739 66.0727 65.0054 67.0696 65.0061C68.0778 65.0059 69.0812 64.8691 70.0526 64.5995L71.2496 66.6732C71.1527 66.8692 71.0755 67.0742 71.019 67.2854C70.9064 67.7011 70.8774 68.135 70.9336 68.5619C70.9898 68.9889 71.1301 69.4005 71.3465 69.7729L73.1292 72.8607C73.1268 72.888 73.125 72.9156 73.125 72.9435V72.9437ZM79.4062 75.1105C78.8465 75.4327 78.1818 75.5198 77.5579 75.3527C76.934 75.1855 76.4019 74.7778 76.0783 74.2189L72.9702 68.8356C72.7846 68.5132 72.7345 68.1303 72.8308 67.771C72.9271 67.4116 73.162 67.1051 73.484 66.9188L75.2733 65.8856C75.4857 65.7623 75.7269 65.6973 75.9725 65.6971C76.0959 65.6972 76.2188 65.7135 76.338 65.7455C76.5162 65.7927 76.6833 65.8748 76.8295 65.987C76.9758 66.0993 77.0984 66.2394 77.1901 66.3993L80.298 71.7825C80.6203 72.3423 80.7074 73.007 80.5402 73.6309C80.3731 74.2548 79.9652 74.7869 79.4062 75.1105ZM33.455 51.1575L33.3387 51.1146C31.95 50.6022 30.5138 50.0726 29.2185 49.4653C29.1597 49.4292 29.1133 49.376 29.0856 49.3128C29.0579 49.2497 29.0501 49.1796 29.0634 49.1119C29.1138 48.7655 29.5474 48.5146 29.8263 48.4306C31.0443 48.0639 32.2387 48.5051 33.0262 48.9396C33.4968 49.2037 34.021 49.3579 34.5595 49.3907C35.0981 49.4236 35.6371 49.3342 36.1362 49.1294C36.4713 48.9978 36.7717 48.7914 37.0147 48.5259C37.0571 48.4771 37.0979 48.4273 37.1367 48.3768C37.3679 48.073 37.5333 47.7245 37.6226 47.3534C37.7119 46.9823 37.723 46.5966 37.6553 46.221C37.5856 45.8317 37.4358 45.4611 37.2153 45.1327C36.9947 44.8044 36.7083 44.5256 36.3743 44.3139C34.854 43.3533 31.7684 41.9031 28.1853 42.9826C25.6184 43.7559 23.7975 45.7901 23.433 48.2916C23.2481 49.5674 23.4753 50.8689 24.0815 52.0066C24.6876 53.1443 25.6411 54.0588 26.8031 54.617C28.3185 55.3275 29.8714 55.9001 31.3745 56.4545L31.4862 56.4958C32.3778 56.8245 33.2379 57.3771 33.1499 57.8701C33.0576 58.3862 32.2726 59.1011 31.0381 59.1011C29.6291 59.1011 28.2754 58.5444 27.4169 57.612C26.4002 56.5076 24.6971 56.3515 23.5396 57.2565C23.231 57.4971 22.9753 57.7988 22.7886 58.1428C22.6019 58.4867 22.4881 58.8655 22.4544 59.2554C22.4208 59.6453 22.4679 60.038 22.5929 60.4088C22.7179 60.7797 22.9181 61.1208 23.1809 61.4108C25.099 63.5273 28.0364 64.7907 31.0381 64.7907C32.8521 64.8014 34.6198 64.2191 36.0723 63.1324C37.5042 62.039 38.4556 60.5254 38.751 58.8703C39.2175 56.2581 38.0713 52.8603 33.455 51.1575ZM36.9051 58.5407C36.6924 59.7327 35.9925 60.8341 34.9344 61.6421C33.8091 62.4799 32.441 62.9271 31.0381 62.9159C28.5569 62.9159 26.1388 61.8825 24.5701 60.1516C24.4804 60.0526 24.4121 59.9361 24.3695 59.8094C24.3269 59.6827 24.3109 59.5486 24.3226 59.4154C24.3343 59.2823 24.3734 59.153 24.4374 59.0357C24.5014 58.9183 24.589 58.8155 24.6946 58.7336C24.8588 58.6066 25.0608 58.5383 25.2684 58.5399C25.4132 58.5408 25.5563 58.5716 25.6886 58.6305C25.821 58.6893 25.9397 58.7749 26.0374 58.8819C27.2446 60.1931 29.1141 60.9761 31.0381 60.9761C33.2865 60.9761 34.7552 59.5457 34.9956 58.1999C35.252 56.764 34.2094 55.5018 32.1349 54.7365L32.0218 54.6949C30.557 54.1545 29.0422 53.596 27.5991 52.9193C26.8003 52.5336 26.1454 51.903 25.7298 51.1193C25.3142 50.3356 25.1596 49.4397 25.2885 48.562C25.5468 46.7889 26.864 45.3389 28.7261 44.7779C31.5968 43.9129 34.1225 45.1091 35.3726 45.8989C35.4866 45.9712 35.5843 46.0664 35.6595 46.1785C35.7347 46.2906 35.7857 46.4171 35.8094 46.55C35.8324 46.6691 35.8299 46.7917 35.8023 46.9099C35.7747 47.028 35.7224 47.1389 35.649 47.2355C35.6345 47.2544 35.6195 47.2728 35.604 47.2908C35.5426 47.3396 35.4737 47.3782 35.3999 47.405C35.163 47.4988 34.9079 47.5378 34.6538 47.5193C34.3997 47.5008 34.1531 47.4251 33.9323 47.298C33.0295 46.7999 31.2254 46.0514 29.2856 46.6351C28.4381 46.8905 27.3856 47.6215 27.2079 48.8416C27.1369 49.3074 27.2164 49.7838 27.4349 50.2013C27.6533 50.6187 27.9993 50.9556 28.4225 51.1629C29.79 51.8041 31.2642 52.3479 32.6945 52.8754L32.8064 52.9166C37.2489 54.5554 37.0667 57.6356 36.9051 58.5407ZM31.606 26.0743C31.4198 26.0732 31.2375 26.1275 31.0822 26.2302C30.9269 26.3328 30.8056 26.4793 30.7336 26.651C30.6616 26.8227 30.6422 27.012 30.6779 27.1947C30.7136 27.3774 30.8027 27.5455 30.934 27.6775C31.0653 27.8095 31.2328 27.8996 31.4154 27.9363C31.5979 27.973 31.7872 27.9547 31.9593 27.8837C32.1315 27.8127 32.2786 27.6922 32.3822 27.5374C32.4857 27.3827 32.541 27.2007 32.541 27.0145C32.5413 26.8914 32.5174 26.7694 32.4706 26.6555C32.4238 26.5416 32.3551 26.438 32.2682 26.3507C32.1814 26.2634 32.0782 26.1941 31.9646 26.1466C31.851 26.0992 31.7291 26.0746 31.606 26.0743ZM46.016 29.6628H50.8997C51.1484 29.6628 51.3868 29.564 51.5627 29.3882C51.7385 29.2123 51.8372 28.9739 51.8372 28.7253C51.8372 28.4766 51.7385 28.2382 51.5627 28.0623C51.3868 27.8865 51.1484 27.7878 50.8997 27.7878H46.016C45.7674 27.7878 45.5289 27.8865 45.3531 28.0623C45.1773 28.2382 45.0785 28.4766 45.0785 28.7253C45.0785 28.9739 45.1773 29.2123 45.3531 29.3882C45.5289 29.564 45.7674 29.6628 46.016 29.6628Z" fill="#179260"/>
</g>
<defs>
<radialGradient id="paint0_radial_81_465" cx="0" cy="0" r="1" gradientUnits="userSpaceOnUse" gradientTransform="translate(-5.99998 -61) rotate(61.3327) scale(201.158 111.584)">
<stop stop-color="#007443"/>
<stop offset="1" stop-color="#00130B"/>
</radialGradient>
<linearGradient id="paint1_linear_81_465" x1="50.5" y1="0" x2="50.5" y2="100" gradientUnits="userSpaceOnUse">
<stop stop-color="#19A069"/>
<stop offset="1" stop-color="#01140C"/>
</linearGradient>
<clipPath id="clip0_81_465">
<rect width="64" height="64" fill="white" transform="translate(18.5 18)"/>
</clipPath>
</defs>
</svg>
