<svg width="100" height="100" viewBox="0 0 100 100" fill="none" xmlns="http://www.w3.org/2000/svg">
<rect width="100" height="100" rx="12" fill="url(#paint0_radial_81_381)"/>
<rect x="0.5" y="0.5" width="99" height="99" rx="11.5" stroke="url(#paint1_linear_81_381)" stroke-opacity="0.24"/>
<g clip-path="url(#clip0_81_381)">
<path d="M29.5448 46.2871L26.2712 46.2773C26.1882 46.2773 26.1207 46.2097 26.1207 46.1266V29.8228C26.1207 29.4356 25.902 29.0817 25.5557 28.9086L21.8442 27.0528L25.5557 25.1971C25.9019 25.0241 26.1207 24.6702 26.1207 24.283V20.1947C26.1207 20.1117 26.1882 20.0443 26.2712 20.0443H71.4806C71.5636 20.0443 71.6311 20.1119 71.6311 20.1947V43.2209C71.6311 43.7853 72.0885 44.243 72.6531 44.243C73.2177 44.243 73.6752 43.7853 73.6752 43.2209V20.1946C73.6752 18.9845 72.6906 18 71.4806 18H26.2712C25.061 18 24.0766 18.9846 24.0766 20.1946V23.6512L19.1017 26.1387C18.7555 26.3117 18.5367 26.6657 18.5367 27.0528C18.5367 27.44 18.7553 27.7939 19.1017 27.967L24.0766 30.4544V46.1266C24.0766 47.3368 25.0612 48.3214 26.2682 48.3214L29.5387 48.3312C30.1047 48.3312 30.5621 47.8757 30.5637 47.3122C30.5655 46.7477 30.1091 46.2887 29.5448 46.2871Z" fill="#19A069"/>
<path d="M81.4632 51.5178C81.4632 48.6335 79.1167 46.2871 76.2325 46.2871L63.437 46.2872C65.6942 42.1369 66.9227 36.9828 66.9227 31.5615C66.9227 28.6772 64.5762 26.3308 61.692 26.3308C58.8079 26.3308 56.4613 28.6772 56.4613 31.5615C56.4613 39.6812 49.8555 46.2871 41.7358 46.2871H33.6298C33.0652 46.2871 32.6077 46.7447 32.6077 47.3091V80.9779C32.6077 81.5424 33.0652 82 33.6298 82H41.7358C42.3004 82 42.7578 81.5424 42.7578 80.9779V48.2992C51.5305 47.7691 58.5055 40.4651 58.5055 31.5615C58.5055 29.8044 59.9349 28.375 61.692 28.375C63.4492 28.375 64.8786 29.8044 64.8786 31.5615C64.8786 37.3025 63.4241 42.6972 60.7832 46.7515C60.5785 47.0658 60.5623 47.4668 60.741 47.7965C60.9196 48.1261 61.2645 48.3315 61.6396 48.3315L76.2324 48.3312C77.9896 48.3312 79.419 49.7608 79.419 51.5178C79.419 53.2748 77.9896 54.7043 76.2324 54.7043H71.061C70.4964 54.7043 70.0389 55.1619 70.0389 55.7264C70.0389 56.2908 70.4964 56.7484 71.061 56.7484H74.5087C76.2658 56.7484 77.6952 58.1778 77.6952 59.935C77.6952 61.6921 76.2658 63.1215 74.5087 63.1215H71.061C70.4964 63.1215 70.0389 63.5791 70.0389 64.1436C70.0389 64.7081 70.4964 65.1657 71.061 65.1657H72.7848C74.5419 65.1657 75.9713 66.5951 75.9713 68.3522C75.9713 70.1094 74.5419 71.5388 72.7848 71.5388H71.061C70.4964 71.5388 70.0389 71.9964 70.0389 72.5608C70.0389 73.1253 70.4964 73.5829 71.061 73.5829C72.8182 73.5829 74.2476 75.0123 74.2476 76.7694C74.2476 78.5266 72.8182 79.956 71.061 79.956H45.8243C45.2597 79.956 44.8023 80.4136 44.8023 80.9781C44.8023 81.5425 45.2597 82.0001 45.8243 82.0001H71.0611C73.9453 82.0001 76.2918 79.6537 76.2918 76.7694C76.2918 75.3715 75.7406 74.0999 74.844 73.1606C76.7075 72.3595 78.0156 70.5058 78.0156 68.3522C78.0156 66.9543 77.4644 65.6827 76.5678 64.7434C78.4312 63.9423 79.7393 62.0886 79.7393 59.9351C79.7393 58.5372 79.1881 57.2656 78.2915 56.3263C80.1551 55.525 81.4632 53.6712 81.4632 51.5178ZM40.714 79.9558H34.6521V48.3312H40.714V79.9558Z" fill="#19A069"/>
<path d="M67.9949 76.8896V51.3976C67.9949 50.8331 67.5375 50.3755 66.9729 50.3755C66.4083 50.3755 65.9508 50.8331 65.9508 51.3976V76.8896C65.9508 77.4541 66.4083 77.9117 66.9729 77.9117C67.5375 77.9117 67.9949 77.4541 67.9949 76.8896Z" fill="#19A069"/>
</g>
<defs>
<radialGradient id="paint0_radial_81_381" cx="0" cy="0" r="1" gradientUnits="userSpaceOnUse" gradientTransform="translate(-6.49998 -61) rotate(61.3327) scale(201.158 111.584)">
<stop stop-color="#007443"/>
<stop offset="1" stop-color="#00130B"/>
</radialGradient>
<linearGradient id="paint1_linear_81_381" x1="50" y1="0" x2="50" y2="100" gradientUnits="userSpaceOnUse">
<stop stop-color="#19A069"/>
<stop offset="1" stop-color="#01140C"/>
</linearGradient>
<clipPath id="clip0_81_381">
<rect width="64" height="64" fill="white" transform="translate(18 18)"/>
</clipPath>
</defs>
</svg>
