<svg width="100" height="100" viewBox="0 0 100 100" fill="none" xmlns="http://www.w3.org/2000/svg">
<rect width="100" height="100" rx="12" fill="url(#paint0_radial_81_424)"/>
<rect x="0.5" y="0.5" width="99" height="99" rx="11.5" stroke="url(#paint1_linear_81_424)" stroke-opacity="0.24"/>
<path fill-rule="evenodd" clip-rule="evenodd" d="M20.6667 23.3333H79.3333C80.0406 23.3333 80.7189 23.6142 81.219 24.1143C81.7191 24.6144 82 25.2927 82 25.9999V68.6666C82 69.3738 81.7191 70.0521 81.219 70.5522C80.7189 71.0523 80.0406 71.3333 79.3333 71.3333H20.6667C19.9594 71.3333 19.2811 71.0523 18.781 70.5522C18.281 70.0521 18 69.3738 18 68.6666V25.9999C18 25.2927 18.281 24.6144 18.781 24.1143C19.2811 23.6142 19.9594 23.3333 20.6667 23.3333ZM20.6667 25.9999V68.6666H79.3333V25.9999H20.6667Z" fill="#19A069"/>
<path d="M18 65.9999H82V63.3333H18V65.9999ZM38 79.3333H62C62.3536 79.3333 62.6928 79.1928 62.9428 78.9427C63.1929 78.6927 63.3333 78.3535 63.3333 77.9999C63.3333 77.6463 63.1929 77.3072 62.9428 77.0571C62.6928 76.8071 62.3536 76.6666 62 76.6666H38C37.6464 76.6666 37.3072 76.8071 37.0572 77.0571C36.8071 77.3072 36.6667 77.6463 36.6667 77.9999C36.6667 78.3535 36.8071 78.6927 37.0572 78.9427C37.3072 79.1928 37.6464 79.3333 38 79.3333Z" fill="#19A069"/>
<path d="M41.9307 78.4214L44.5974 70.4214C44.6605 70.2535 44.6891 70.0746 44.6815 69.8954C44.6739 69.7162 44.6302 69.5404 44.553 69.3785C44.4759 69.2166 44.3668 69.0719 44.2325 68.9531C44.0981 68.8343 43.9411 68.7438 43.771 68.6871C43.6008 68.6304 43.421 68.6086 43.2422 68.623C43.0634 68.6374 42.8894 68.6878 42.7305 68.771C42.5717 68.8542 42.4312 68.9687 42.3176 69.1075C42.204 69.2462 42.1196 69.4065 42.0694 69.5787L39.4027 77.5787C39.3396 77.7466 39.3109 77.9255 39.3186 78.1047C39.3262 78.2838 39.3699 78.4597 39.447 78.6216C39.5242 78.7835 39.6332 78.9282 39.7676 79.047C39.9019 79.1658 40.0589 79.2562 40.229 79.3129C40.3992 79.3697 40.579 79.3915 40.7578 79.3771C40.9366 79.3626 41.1106 79.3123 41.2695 79.2291C41.4284 79.1458 41.5688 79.0314 41.6824 78.8926C41.796 78.7538 41.8805 78.5935 41.9307 78.4214ZM58.0694 78.4214L55.4027 70.4214C55.3396 70.2535 55.3109 70.0746 55.3186 69.8954C55.3262 69.7162 55.3699 69.5404 55.447 69.3785C55.5242 69.2166 55.6332 69.0719 55.7676 68.9531C55.9019 68.8343 56.0589 68.7438 56.229 68.6871C56.3992 68.6304 56.579 68.6086 56.7578 68.623C56.9366 68.6374 57.1106 68.6878 57.2695 68.771C57.4284 68.8542 57.5688 68.9687 57.6824 69.1075C57.796 69.2462 57.8805 69.4065 57.9307 69.5787L60.5974 77.5787C60.6605 77.7466 60.6891 77.9255 60.6815 78.1047C60.6739 78.2838 60.6302 78.4597 60.553 78.6216C60.4759 78.7835 60.3668 78.9282 60.2325 79.047C60.0981 79.1658 59.9411 79.2562 59.771 79.3129C59.6008 79.3697 59.421 79.3915 59.2422 79.3771C59.0634 79.3626 58.8894 79.3123 58.7305 79.2291C58.5717 79.1458 58.4312 79.0314 58.3176 78.8926C58.204 78.7538 58.1196 78.5935 58.0694 78.4214ZM45.1547 39.024L43.824 36.712L32.0027 43.512V45.8214L43.824 52.6214L45.1547 50.3094L35.3414 44.6667L45.1547 39.024ZM56 39.024L57.3334 36.712L69.1547 43.512V45.8214L57.3307 52.6214L56.0027 50.3094L65.8134 44.6667L56 39.024ZM51.696 32.384L45.7174 56.304L48.304 56.9494L54.2827 33.0294L51.696 32.384Z" fill="#19A069"/>
<defs>
<radialGradient id="paint0_radial_81_424" cx="0" cy="0" r="1" gradientUnits="userSpaceOnUse" gradientTransform="translate(-6.49998 -61) rotate(61.3327) scale(201.158 111.584)">
<stop stop-color="#007443"/>
<stop offset="1" stop-color="#00130B"/>
</radialGradient>
<linearGradient id="paint1_linear_81_424" x1="50" y1="0" x2="50" y2="100" gradientUnits="userSpaceOnUse">
<stop stop-color="#19A069"/>
<stop offset="1" stop-color="#01140C"/>
</linearGradient>
</defs>
</svg>
